<?xml version="1.0" encoding="UTF-8" standalone="no"?>
<!-- Created with Inkscape (http://www.inkscape.org/) -->
<svg
   xmlns:ns="http://creativecommons.org/ns#"
   xmlns:dc="http://purl.org/dc/elements/1.1/"
   xmlns:cc="http://web.resource.org/cc/"
   xmlns:rdf="http://www.w3.org/1999/02/22-rdf-syntax-ns#"
   xmlns:svg="http://www.w3.org/2000/svg"
   xmlns="http://www.w3.org/2000/svg"
   xmlns:xlink="http://www.w3.org/1999/xlink"
   xmlns:sodipodi="http://sodipodi.sourceforge.net/DTD/sodipodi-0.dtd"
   xmlns:inkscape="http://www.inkscape.org/namespaces/inkscape"
   width="48"
   height="47.999992"
   id="svg2"
   sodipodi:version="0.32"
   inkscape:version="0.45.1"
   sodipodi:docbase="/home/ehoover/personal-workspace/elfrc"
   sodipodi:docname="gears.svg"
   inkscape:output_extension="org.inkscape.output.svg.inkscape"
   version="1.0">
  <defs
     id="defs4">
    <linearGradient
       id="linearGradient2254">
      <stop
         style="stop-color:#bedcdc;stop-opacity:1;"
         offset="0"
         id="stop2256" />
      <stop
         id="stop2264"
         offset="0.5"
         style="stop-color:#8e9e9e;stop-opacity:0.74149668;" />
      <stop
         style="stop-color:#404f5c;stop-opacity:0.8392157;"
         offset="1"
         id="stop2258" />
    </linearGradient>
    <radialGradient
       inkscape:collect="always"
       xlink:href="#linearGradient2254"
       id="radialGradient2340"
       gradientUnits="userSpaceOnUse"
       gradientTransform="matrix(-1.0503239e-2,-8.6112923e-2,9.8860785e-2,-1.0423434e-2,178.83301,726.31182)"
       cx="380"
       cy="389.50504"
       fx="380"
       fy="389.50504"
       r="148.85715" />
    <filter
       inkscape:collect="always"
       id="filter3340">
      <feGaussianBlur
         inkscape:collect="always"
         stdDeviation="3.9590909"
         id="feGaussianBlur3342" />
    </filter>
    <filter
       inkscape:collect="always"
       id="filter3390">
      <feGaussianBlur
         inkscape:collect="always"
         stdDeviation="10.093933"
         id="feGaussianBlur3392" />
    </filter>
    <radialGradient
       inkscape:collect="always"
       xlink:href="#linearGradient2254"
       id="radialGradient3406"
       gradientUnits="userSpaceOnUse"
       gradientTransform="matrix(8.6420355e-3,-5.372422e-2,6.1895906e-2,8.6562576e-3,200.32665,722.64458)"
       cx="380"
       cy="389.50504"
       fx="380"
       fy="389.50504"
       r="148.85715" />
  </defs>
  <sodipodi:namedview
     id="base"
     pagecolor="#ffffff"
     bordercolor="#666666"
     borderopacity="1.0"
     gridtolerance="10000"
     guidetolerance="10"
     objecttolerance="10"
     inkscape:pageopacity="0.0"
     inkscape:pageshadow="2"
     inkscape:zoom="1"
     inkscape:cx="491"
     inkscape:cy="-78.243492"
     inkscape:document-units="px"
     inkscape:current-layer="layer1"
     showguides="true"
     inkscape:guide-bbox="true"
     showgrid="true"
     inkscape:window-width="1280"
     inkscape:window-height="722"
     inkscape:window-x="137"
     inkscape:window-y="24"
     width="48px"
     height="48px">
    <sodipodi:guide
       orientation="horizontal"
       position="658.57143"
       id="guide2191" />
    <sodipodi:guide
       orientation="vertical"
       position="380"
       id="guide2193" />
    <sodipodi:guide
       orientation="horizontal"
       position="880"
       id="guide2195" />
    <sodipodi:guide
       orientation="horizontal"
       position="460"
       id="guide2197" />
  </sodipodi:namedview>
  <metadata
     id="metadata7">
    <rdf:RDF>
      <ns:Work
         rdf:about="">
        <dc:format>image/svg+xml</dc:format>
        <dc:type
           rdf:resource="http://purl.org/dc/dcmitype/StillImage" />
      </ns:Work>
      <cc:Work
         rdf:about="">
        <dc:format>image/svg+xml</dc:format>
        <dc:type
           rdf:resource="http://purl.org/dc/dcmitype/StillImage" />
      </cc:Work>
    </rdf:RDF>
  </metadata>
  <g
     inkscape:label="Layer 1"
     inkscape:groupmode="layer"
     id="layer1"
     transform="translate(-193.5134,-669.53416)">
    <path
       id="path3344"
       d="M 417.4375,175.3125 C 415.02989,193.43332 399.52666,207.4375 380.75,207.4375 C 362.92746,207.43751 348.02626,194.83997 344.5,178.0625 C 331.44088,180.8743 318.84697,184.91264 306.8125,190.03125 C 313.40793,206.8016 306.9498,226.34422 290.875,235.625 C 275.94954,244.24221 257.48713,241.30618 245.9375,229.5625 C 237.83753,237.09373 230.29997,245.2531 223.46875,253.96875 C 237.84984,265.13757 242.1412,285.50684 232.78125,301.71875 C 223.85405,317.18111 205.44108,323.79183 189.125,318.40625 C 185.21468,330.42654 182.34593,342.92088 180.65625,355.78125 C 199.39847,357.60659 214.0625,373.40532 214.0625,392.625 C 214.06251,410.72976 201.05024,425.78568 183.875,429 C 185.15295,434.75903 186.63441,440.42917 188.375,446 C 191.73461,445.11557 195.17011,444.70473 198.5625,444.78125 C 211.0701,445.06338 223.13542,451.69333 229.84375,463.3125 C 238.97465,479.1277 235.10741,498.8917 221.5625,510.21875 C 229.12014,520.16655 237.54107,529.42721 246.71875,537.875 C 253.6971,529.42178 263.94671,524.67555 274.5,524.4375 C 281.0516,524.28972 287.69502,525.89236 293.78125,529.40625 C 310.65672,539.14928 316.95246,560.18646 308.65625,577.46875 C 320.13081,582.21944 332.10863,585.98823 344.5,588.65625 C 348.02626,571.87879 362.92747,559.28125 380.75,559.28125 C 399.52665,559.28122 415.02988,573.28542 417.4375,591.40625 C 428.65789,589.87676 439.60231,587.48112 450.1875,584.25 C 444.64994,567.87189 451.23921,549.31695 466.78125,540.34375 C 472.31419,537.14931 478.34185,535.56029 484.3125,535.40625 C 496.31646,535.09655 508.09765,540.65934 515.40625,550.90625 C 526.08052,542.82801 535.96058,533.74407 544.90625,523.8125 C 532.07538,512.37662 528.57093,493.12185 537.5,477.65625 C 544.20834,466.03707 556.27365,459.40712 568.78125,459.125 C 573.77067,459.01246 578.83833,459.91737 583.65625,461.90625 C 587.97945,451.2025 591.44467,440.05483 593.96875,428.5625 C 577.87121,424.5391 565.9375,409.9651 565.9375,392.625 C 565.93753,374.18321 579.44388,358.88357 597.09375,356.0625 C 594.64514,337.2258 589.69694,319.18039 582.59375,302.25 C 565.31629,310.52773 544.30075,304.24215 534.5625,287.375 C 525.45833,271.60611 529.29598,251.9056 542.75,240.5625 C 534.67325,231.86301 525.87282,223.82594 516.4375,216.59375 C 505.08123,229.96662 485.44847,233.76905 469.71875,224.6875 C 454.93528,216.15226 448.25725,198.94231 452.40625,183.1875 C 441.13116,179.60755 429.44601,176.94925 417.4375,175.3125 z M 388.875,309.0625 C 390.15643,309.0625 391.42194,309.09203 392.6875,309.15625 C 397.7497,309.41333 402.6917,310.18335 407.4375,311.40625 C 408.62399,311.71175 409.80593,312.04432 410.96875,312.40625 C 413.2943,313.13061 415.55975,313.96544 417.78125,314.90625 C 418.89205,315.37634 419.98156,315.88165 421.0625,316.40625 C 421.60297,316.66855 422.15451,316.94363 422.6875,317.21875 C 422.762,317.25694 422.8319,317.30531 422.90625,317.34375 C 423.63125,317.71854 424.35165,318.10228 425.0625,318.5 C 425.84516,318.93999 426.60919,319.37827 427.375,319.84375 C 429.41704,321.08578 431.40569,322.41653 433.3125,323.84375 C 434.0276,324.37865 434.74159,324.94041 435.4375,325.5 C 435.86498,325.84454 436.29913,326.17751 436.71875,326.53125 C 437.28531,327.00757 437.82304,327.50731 438.375,328 C 439.40948,328.92341 440.42694,329.86444 441.40625,330.84375 C 442.03647,331.47433 442.643,332.12854 443.25,332.78125 C 443.26011,332.79212 443.27114,332.80162 443.28125,332.8125 C 443.56193,333.11468 443.84938,333.41194 444.125,333.71875 C 444.83235,334.50614 445.51411,335.30783 446.1875,336.125 C 446.37653,336.35439 446.5637,336.58082 446.75,336.8125 C 447.31135,337.50925 447.86987,338.22042 448.40625,338.9375 C 449.07464,339.83269 449.71531,340.73053 450.34375,341.65625 C 451.22165,342.94944 452.07761,344.27517 452.875,345.625 C 453.32939,346.39358 453.76033,347.18273 454.1875,347.96875 C 455.33153,350.07385 456.37232,352.21589 457.3125,354.4375 C 457.72461,355.41063 458.12883,356.381 458.5,357.375 C 458.53791,357.47648 458.55627,357.58581 458.59375,357.6875 C 458.92333,358.58213 459.23555,359.49574 459.53125,360.40625 C 459.57188,360.53129 459.61626,360.65592 459.65625,360.78125 C 459.7713,361.14207 459.8591,361.5118 459.96875,361.875 C 460.23805,362.76698 460.5137,363.65671 460.75,364.5625 C 460.81503,364.81177 460.875,365.06222 460.9375,365.3125 C 461.09757,365.9526 461.23167,366.60345 461.375,367.25 C 461.55187,368.04784 461.72404,368.84902 461.875,369.65625 C 461.88288,369.6984 461.89845,369.73907 461.90625,369.78125 C 461.91964,369.85357 461.92432,369.92761 461.9375,370 C 462.10738,370.93277 462.2716,371.86797 462.40625,372.8125 C 462.41522,372.87547 462.42868,372.93698 462.4375,373 C 462.46643,373.20674 462.47277,373.41772 462.5,373.625 C 462.61459,374.49739 462.7285,375.36839 462.8125,376.25 C 462.91678,377.34564 463.00625,378.45385 463.0625,379.5625 C 463.12569,380.81791 463.15625,382.10398 463.15625,383.375 C 463.15625,385.93786 463.03501,388.44124 462.78125,390.9375 C 462.78021,390.94776 462.78229,390.95849 462.78125,390.96875 C 462.65491,392.20641 462.49893,393.43728 462.3125,394.65625 C 462.31095,394.66642 462.31405,394.67733 462.3125,394.6875 C 462.12558,395.9063 461.90172,397.11391 461.65625,398.3125 C 461.6542,398.32251 461.6583,398.33374 461.65625,398.34375 C 461.53327,398.94298 461.39232,399.53127 461.25,400.125 C 461.11243,400.72006 460.96429,401.31675 460.8125,401.90625 C 460.80999,401.91603 460.81502,401.92772 460.8125,401.9375 C 460.50903,403.11408 460.17146,404.28421 459.8125,405.4375 C 459.80954,405.44703 459.81546,405.45922 459.8125,405.46875 C 459.09069,407.78456 458.24887,410.06865 457.3125,412.28125 C 456.37232,414.50286 455.33153,416.6449 454.1875,418.75 C 454.18311,418.75808 454.19189,418.77317 454.1875,418.78125 C 453.04705,420.87794 451.79911,422.90634 450.46875,424.875 C 450.46387,424.88223 450.47364,424.89902 450.46875,424.90625 C 449.8055,425.887 449.11435,426.8346 448.40625,427.78125 C 448.40115,427.78807 448.41135,427.80568 448.40625,427.8125 C 447.69763,428.7592 446.93946,429.68271 446.1875,430.59375 C 446.18232,430.60003 446.19269,430.61872 446.1875,430.625 C 443.16276,434.28729 439.78826,437.6639 436.125,440.6875 C 432.45597,443.71582 428.49121,446.39968 424.28125,448.6875 C 422.17615,449.83153 420.00286,450.87232 417.78125,451.8125 C 415.55975,452.75257 413.2943,453.58873 410.96875,454.3125 C 409.80593,454.67443 408.62399,455.007 407.4375,455.3125 C 402.6917,456.53437 397.7497,457.30565 392.6875,457.5625 C 391.42194,457.62672 390.15643,457.65625 388.875,457.65625 C 387.59357,457.65625 386.32806,457.62672 385.0625,457.5625 C 380.0003,457.30542 375.0583,456.5354 370.3125,455.3125 C 369.12601,455.007 367.94407,454.67443 366.78125,454.3125 C 364.4557,453.58814 362.19025,452.75331 359.96875,451.8125 C 357.74714,450.87232 355.57385,449.83153 353.46875,448.6875 C 352.41626,448.11513 351.39602,447.49602 350.375,446.875 C 349.35398,446.25399 348.33452,445.60384 347.34375,444.9375 C 346.35569,444.2698 345.39097,443.5882 344.4375,442.875 C 342.53056,441.44859 340.69674,439.94282 338.9375,438.34375 C 338.06344,437.54927 337.2103,436.70979 336.375,435.875 C 335.52908,435.02959 334.71084,434.19768 333.90625,433.3125 C 333.90098,433.3067 333.91152,433.28705 333.90625,433.28125 C 333.10679,432.40121 332.31958,431.51149 331.5625,430.59375 C 330.80535,429.67642 330.05695,428.73472 329.34375,427.78125 C 328.63061,426.82737 327.94889,425.86345 327.28125,424.875 C 325.94585,422.89888 324.70653,420.8551 323.5625,418.75 C 322.41847,416.6449 321.37768,414.50286 320.4375,412.28125 C 320.43374,412.27237 320.44125,412.25888 320.4375,412.25 C 319.97122,411.14776 319.50759,410.03483 319.09375,408.90625 C 319.09037,408.89703 319.09713,408.88423 319.09375,408.875 C 318.67701,407.73712 318.29938,406.60057 317.9375,405.4375 C 317.58339,404.29979 317.26909,403.15969 316.96875,402 C 316.94724,401.91694 316.92747,401.83317 316.90625,401.75 C 316.6368,400.69436 316.37993,399.60411 316.15625,398.53125 C 316.10016,398.26161 316.05315,397.98945 316,397.71875 C 315.8504,396.95819 315.68863,396.20617 315.5625,395.4375 C 315.49939,395.05252 315.43216,394.6682 315.375,394.28125 C 315.3705,394.25083 315.37946,394.21793 315.375,394.1875 C 315.22591,393.17079 315.10726,392.15488 315,391.125 C 314.98148,390.94734 314.95476,390.77178 314.9375,390.59375 C 314.83544,389.53998 314.77604,388.47291 314.71875,387.40625 C 314.71421,387.32183 314.69175,387.24074 314.6875,387.15625 C 314.62329,385.89064 314.59375,384.62518 314.59375,383.34375 C 314.59375,382.06232 314.62328,380.79681 314.6875,379.53125 C 314.74876,378.27824 314.84245,377.02405 314.96875,375.78125 C 314.9698,375.77093 314.9677,375.76032 314.96875,375.75 C 315.09456,374.51221 315.25159,373.28161 315.4375,372.0625 C 315.43906,372.05232 315.43594,372.04143 315.4375,372.03125 C 315.6239,370.81231 315.84879,369.60498 316.09375,368.40625 C 316.09579,368.39629 316.09171,368.38496 316.09375,368.375 C 316.3392,367.1764 316.63502,365.98936 316.9375,364.8125 C 316.94,364.80278 316.93499,364.79097 316.9375,364.78125 C 317.24046,363.60452 317.57903,362.4347 317.9375,361.28125 C 317.94043,361.27182 317.93456,361.25943 317.9375,361.25 C 318.29938,360.08722 318.67701,358.95004 319.09375,357.8125 C 319.40601,356.96021 319.75146,356.11861 320.09375,355.28125 C 320.13263,355.18621 320.17949,355.09483 320.21875,355 C 320.38701,354.59321 320.54351,354.18437 320.71875,353.78125 C 320.98901,353.16026 321.27583,352.5495 321.5625,351.9375 C 321.75888,351.51778 321.95229,351.10291 322.15625,350.6875 C 322.6055,349.7735 323.07663,348.86279 323.5625,347.96875 C 323.56682,347.96081 323.55818,347.94544 323.5625,347.9375 C 324.13445,346.88501 324.72318,345.86477 325.34375,344.84375 C 325.96883,343.81536 326.60844,342.80738 327.28125,341.8125 C 327.94411,340.83157 328.63603,339.88434 329.34375,338.9375 C 329.34863,338.93097 329.33886,338.91278 329.34375,338.90625 C 330.052,337.95937 330.8109,337.03623 331.5625,336.125 C 331.56749,336.11895 331.55751,336.0998 331.5625,336.09375 C 332.31958,335.17649 333.10679,334.2858 333.90625,333.40625 C 336.30485,330.76738 338.87302,328.3027 341.625,326.03125 C 345.29403,323.00293 349.25879,320.31907 353.46875,318.03125 C 355.57385,316.88722 357.74714,315.84643 359.96875,314.90625 C 362.19025,313.96618 364.4557,313.13002 366.78125,312.40625 C 367.94407,312.04432 369.12601,311.71175 370.3125,311.40625 C 375.0583,310.18438 380.0003,309.4131 385.0625,309.15625 C 386.32806,309.09203 387.59357,309.0625 388.875,309.0625 z "
       style="opacity:0.8848485;fill:#000000;fill-opacity:1;stroke:none;stroke-width:0;stroke-miterlimit:4;stroke-opacity:1;filter:url(#filter3390)"
       transform="matrix(9.5398697e-2,0,0,9.2929863e-2,177.13184,653.24239)" />
    <path
       style="opacity:1;fill:#c0c0c0;fill-opacity:1;stroke:none;stroke-width:0;stroke-miterlimit:4;stroke-opacity:1"
       d="M 217.07182,669.62258 C 216.83227,671.29885 215.28979,672.5943 213.42161,672.5943 C 211.64837,672.5943 210.16578,671.42897 209.81494,669.87697 C 208.51563,670.13708 207.26261,670.51064 206.06524,670.98414 C 206.72145,672.53548 206.07891,674.34326 204.47955,675.20178 C 202.99455,675.99891 201.15764,675.72732 200.00852,674.64097 C 199.20262,675.33764 198.45267,676.09242 197.77301,676.89866 C 199.20384,677.93183 199.63081,679.81609 198.69955,681.31577 C 197.81134,682.74611 195.97935,683.35764 194.35599,682.85944 C 193.96694,683.97138 193.68151,685.12717 193.5134,686.31681 C 195.37815,686.48566 196.83714,687.94712 196.83714,689.72504 C 196.83714,691.39981 195.54249,692.79256 193.83365,693.0899 C 193.9608,693.62264 194.10819,694.14715 194.28137,694.66248 C 194.61564,694.58067 194.95745,694.54266 195.29497,694.54974 C 196.53941,694.57584 197.73984,695.18914 198.40728,696.26397 C 199.31576,697.72695 198.93099,699.55522 197.58334,700.60303 C 198.33529,701.52324 199.17312,702.3799 200.08625,703.16136 C 200.78056,702.3794 201.80034,701.94035 202.85033,701.91833 C 203.50218,701.90466 204.16316,702.05291 204.76871,702.37796 C 206.44772,703.27924 207.07411,705.22528 206.24869,706.82397 C 207.39034,707.26344 208.58207,707.61207 209.81494,707.85887 C 210.16578,706.30688 211.64837,705.14154 213.42161,705.14154 C 215.28979,705.14154 216.83227,706.437 217.07182,708.11326 C 218.18818,707.97178 219.27709,707.75017 220.33026,707.45127 C 219.7793,705.93622 220.4349,704.2198 221.98125,703.38973 C 222.53174,703.09423 223.13146,702.94724 223.72551,702.93299 C 224.91983,702.90434 226.092,703.41893 226.81916,704.36681 C 227.88119,703.61954 228.8642,702.77923 229.75425,701.86051 C 228.47765,700.80264 228.12897,699.02148 229.01737,697.59084 C 229.68481,696.51601 230.88524,695.9027 232.12968,695.87661 C 232.6261,695.8662 233.1303,695.9499 233.60966,696.13389 C 234.03979,695.14374 234.38456,694.11252 234.63569,693.04943 C 233.03408,692.67724 231.84674,691.32908 231.84674,689.72504 C 231.84674,688.01908 233.19055,686.60379 234.94661,686.34283 C 234.70299,684.60034 234.21067,682.93106 233.50394,681.36491 C 231.78493,682.13064 229.694,681.5492 228.7251,679.9889 C 227.81929,678.53021 228.20111,676.70781 229.53971,675.65852 C 228.73612,674.85378 227.86053,674.11031 226.92177,673.4413 C 225.79188,674.67835 223.83853,675.03009 222.27351,674.19001 C 220.80264,673.40046 220.13821,671.80845 220.55101,670.35106 C 219.4292,670.01989 218.2666,669.77399 217.07182,669.62258 z M 214.23001,681.9951 C 214.3575,681.9951 214.48341,681.99783 214.60933,682.00377 C 215.11299,682.02756 215.60469,682.09879 216.07687,682.21191 C 216.19492,682.24017 216.31252,682.27093 216.42821,682.30442 C 216.65959,682.37142 216.88499,682.44865 217.10602,682.53568 C 217.21654,682.57916 217.32494,682.62591 217.43248,682.67443 C 217.48626,682.6987 217.54113,682.72414 217.59416,682.74959 C 217.60157,682.75313 217.60853,682.7576 217.61593,682.76116 C 217.68806,682.79583 217.75974,682.83133 217.83046,682.86812 C 217.90833,682.90882 217.98435,682.94936 218.06054,682.99242 C 218.26371,683.10731 218.46157,683.23041 218.65129,683.36244 C 218.72244,683.41192 218.79348,683.46389 218.86272,683.51565 C 218.90525,683.54752 218.94844,683.57832 218.99019,683.61105 C 219.04656,683.65511 219.10006,683.70134 219.15498,683.74691 C 219.25791,683.83233 219.35914,683.91938 219.45657,684.00997 C 219.51928,684.0683 219.57962,684.12882 219.64002,684.1892 C 219.64102,684.19021 219.64212,684.19109 219.64313,684.19209 C 219.67105,684.22004 219.69965,684.24754 219.72707,684.27592 C 219.79745,684.34876 219.86528,684.42292 219.93228,684.49851 C 219.95109,684.51973 219.96971,684.54068 219.98825,684.56211 C 220.0441,684.62656 220.09967,684.69235 220.15303,684.75868 C 220.21954,684.84149 220.28328,684.92455 220.34581,685.01018 C 220.43315,685.12981 220.51831,685.25244 220.59765,685.37731 C 220.64286,685.44841 220.68574,685.52141 220.72824,685.59412 C 220.84206,685.78885 220.94561,685.987 221.03916,686.19251 C 221.08016,686.28253 221.12038,686.37229 221.15731,686.46424 C 221.16108,686.47363 221.16291,686.48374 221.16663,686.49315 C 221.19943,686.57591 221.23049,686.66042 221.25991,686.74465 C 221.26395,686.75621 221.26837,686.76774 221.27235,686.77934 C 221.28379,686.81271 221.29253,686.84692 221.30344,686.88051 C 221.33023,686.96303 221.35766,687.04533 221.38117,687.12912 C 221.38764,687.15218 221.39361,687.17535 221.39982,687.1985 C 221.41575,687.25771 221.42909,687.31792 221.44335,687.37773 C 221.46095,687.45153 221.47808,687.52564 221.4931,687.60032 C 221.49388,687.60422 221.49543,687.60798 221.49621,687.61188 C 221.49754,687.61857 221.49801,687.62542 221.49932,687.63211 C 221.51622,687.7184 221.53256,687.80491 221.54596,687.89228 C 221.54685,687.89811 221.54819,687.9038 221.54907,687.90963 C 221.55194,687.92875 221.55258,687.94827 221.55528,687.96744 C 221.56669,688.04814 221.57802,688.12872 221.58638,688.21027 C 221.59675,688.31162 221.60565,688.41414 221.61125,688.51669 C 221.61754,688.63282 221.62058,688.75179 221.62058,688.86937 C 221.62058,689.10644 221.60852,689.33802 221.58327,689.56893 C 221.58316,689.56988 221.58337,689.57088 221.58327,689.57183 C 221.5707,689.68631 221.55518,689.80018 221.53663,689.91294 C 221.53648,689.91388 221.53678,689.91489 221.53663,689.91583 C 221.51803,690.02857 221.49576,690.14028 221.47134,690.25116 C 221.47113,690.25208 221.47154,690.25312 221.47134,690.25405 C 221.4591,690.30948 221.44508,690.3639 221.43092,690.41882 C 221.41723,690.47387 221.40249,690.52906 221.38739,690.5836 C 221.38714,690.5845 221.38764,690.58558 221.38739,690.58649 C 221.35719,690.69533 221.32361,690.80357 221.28789,690.91025 C 221.2876,690.91114 221.28819,690.91226 221.28789,690.91314 C 221.21608,691.12737 221.13232,691.33866 221.03916,691.54333 C 220.94561,691.74884 220.84206,691.94699 220.72824,692.14172 C 220.7278,692.14247 220.72867,692.14387 220.72824,692.14462 C 220.61477,692.33857 220.49061,692.52621 220.35824,692.70832 C 220.35776,692.70899 220.35873,692.71054 220.35824,692.71121 C 220.29225,692.80193 220.22349,692.88959 220.15303,692.97716 C 220.15253,692.97779 220.15354,692.97942 220.15303,692.98005 C 220.08253,693.06762 220.0071,693.15305 219.93228,693.23733 C 219.93177,693.23791 219.9328,693.23964 219.93228,693.24022 C 219.63134,693.579 219.29559,693.89135 218.93112,694.17105 C 218.56607,694.45118 218.1716,694.69945 217.75273,694.91109 C 217.54329,695.01692 217.32706,695.11319 217.10602,695.20017 C 216.88499,695.28713 216.65959,695.36448 216.42821,695.43143 C 216.31252,695.46491 216.19492,695.49567 216.07687,695.52393 C 215.60469,695.63696 215.11299,695.70831 214.60933,695.73207 C 214.48341,695.73801 214.3575,695.74074 214.23001,695.74074 C 214.10251,695.74074 213.9766,695.73801 213.85068,695.73207 C 213.34702,695.70829 212.85532,695.63706 212.38314,695.52393 C 212.26509,695.49567 212.1475,695.46491 212.0318,695.43143 C 211.80042,695.36442 211.57502,695.28719 211.354,695.20017 C 211.13296,695.11319 210.91673,695.01692 210.70728,694.91109 C 210.60257,694.85814 210.50106,694.80087 210.39947,694.74342 C 210.29789,694.68598 210.19645,694.62583 210.09788,694.56419 C 209.99957,694.50243 209.90359,694.43938 209.80872,694.3734 C 209.61899,694.24145 209.43654,694.10216 209.2615,693.95424 C 209.17454,693.88075 209.08966,693.80309 209.00655,693.72587 C 208.92238,693.64767 208.84097,693.57071 208.76092,693.48883 C 208.7604,693.48829 208.76145,693.48647 208.76092,693.48594 C 208.68138,693.40453 208.60306,693.32222 208.52773,693.23733 C 208.4524,693.15247 208.37794,693.06536 208.30698,692.97716 C 208.23603,692.88892 208.1682,692.79975 208.10177,692.70832 C 207.96891,692.52552 207.8456,692.33646 207.73178,692.14172 C 207.61795,691.94699 207.5144,691.74884 207.42086,691.54333 C 207.42048,691.54251 207.42123,691.54126 207.42086,691.54044 C 207.37446,691.43848 207.32834,691.33553 207.28716,691.23113 C 207.28682,691.23028 207.2875,691.22909 207.28716,691.22824 C 207.2457,691.12298 207.20813,691.01784 207.17212,690.91025 C 207.13689,690.80501 207.10562,690.69955 207.07574,690.59227 C 207.0736,690.58459 207.07163,690.57684 207.06952,690.56914 C 207.04271,690.47149 207.01715,690.37064 206.9949,690.27139 C 206.98932,690.24645 206.98464,690.22127 206.97935,690.19623 C 206.96447,690.12588 206.94837,690.05631 206.93582,689.98521 C 206.92954,689.94959 206.92285,689.91404 206.91717,689.87825 C 206.91672,689.87543 206.91761,689.87239 206.91717,689.86957 C 206.90233,689.77552 206.89053,689.68155 206.87986,689.58628 C 206.87801,689.56984 206.87535,689.5536 206.87364,689.53714 C 206.86348,689.43966 206.85757,689.34095 206.85187,689.24228 C 206.85142,689.23447 206.84919,689.22697 206.84876,689.21915 C 206.84237,689.10208 206.83944,688.98501 206.83944,688.86648 C 206.83944,688.74794 206.84237,688.63087 206.84876,688.5138 C 206.85486,688.39789 206.86418,688.28187 206.87675,688.16691 C 206.87685,688.16595 206.87664,688.16497 206.87675,688.16402 C 206.88926,688.04952 206.90489,687.93568 206.92338,687.82291 C 206.92354,687.82196 206.92323,687.82096 206.92338,687.82002 C 206.94193,687.70726 206.96431,687.59557 206.98868,687.48469 C 206.98888,687.48376 206.98847,687.48272 206.98868,687.48179 C 207.0131,687.37092 207.04253,687.26111 207.07263,687.15225 C 207.07287,687.15135 207.07238,687.15025 207.07263,687.14936 C 207.10277,687.0405 207.13645,686.93229 207.17212,686.82559 C 207.17241,686.82472 207.17183,686.82357 207.17212,686.8227 C 207.20813,686.71513 207.2457,686.60994 207.28716,686.50471 C 207.31823,686.42587 207.3526,686.34802 207.38666,686.27056 C 207.39052,686.26177 207.39519,686.25331 207.39909,686.24454 C 207.41583,686.20691 207.4314,686.16909 207.44884,686.1318 C 207.47573,686.07436 207.50427,686.01786 207.53279,685.96125 C 207.55233,685.92242 207.57157,685.88404 207.59186,685.84562 C 207.63656,685.76107 207.68344,685.67682 207.73178,685.59412 C 207.73221,685.59338 207.73135,685.59196 207.73178,685.59123 C 207.78868,685.49387 207.84726,685.39949 207.909,685.30504 C 207.97119,685.20991 208.03483,685.11667 208.10177,685.02463 C 208.16772,684.93389 208.23656,684.84627 208.30698,684.75868 C 208.30746,684.75808 208.30649,684.7564 208.30698,684.75579 C 208.37745,684.6682 208.45295,684.58281 208.52773,684.49851 C 208.52823,684.49795 208.52724,684.49618 208.52773,684.49562 C 208.60306,684.41077 208.68138,684.32838 208.76092,684.24702 C 208.99957,684.00291 209.25509,683.77491 209.52889,683.56479 C 209.89394,683.28466 210.28841,683.03639 210.70728,682.82475 C 210.91673,682.71893 211.13296,682.62265 211.354,682.53568 C 211.57502,682.44872 211.80042,682.37137 212.0318,682.30442 C 212.1475,682.27093 212.26509,682.24017 212.38314,682.21191 C 212.85532,682.09888 213.34702,682.02753 213.85068,682.00377 C 213.9766,681.99783 214.10251,681.9951 214.23001,681.9951 z "
       id="path2274" />
    <path
       style="opacity:0.79393939;fill:#a9a9a9;fill-opacity:1;stroke:none;stroke-width:0;stroke-miterlimit:4;stroke-opacity:1"
       d="M 214.22845,673.03659 C 204.82913,673.03659 197.20247,680.13036 197.20247,688.86937 C 197.20247,697.60838 204.82913,704.69925 214.22845,704.69925 C 223.62778,704.69926 231.25755,697.60838 231.25755,688.86937 C 231.25755,680.13036 223.62778,673.03659 214.22845,673.03659 z M 214.23156,681.9951 C 214.35906,681.9951 214.48497,681.99783 214.61088,682.00377 C 215.11455,682.02756 215.60625,682.09879 216.07843,682.21191 C 216.19648,682.24017 216.31407,682.27093 216.42977,682.30442 C 216.66115,682.37142 216.88655,682.44865 217.10757,682.53568 C 217.43913,682.66613 217.75732,682.82018 218.0621,682.99242 C 218.26527,683.10731 218.46313,683.23041 218.65284,683.36244 C 218.93744,683.56036 219.2073,683.77676 219.45813,684.00997 C 219.95975,684.47663 220.38835,685.00972 220.72979,685.59412 C 220.84362,685.78885 220.94717,685.987 221.04071,686.19251 C 221.36873,686.91266 221.56803,687.69624 221.6128,688.51669 C 221.61909,688.63282 221.62213,688.75179 221.62213,688.86937 C 221.62213,689.10644 221.61007,689.33802 221.58482,689.56893 C 221.58472,689.56988 221.58493,689.57088 221.58482,689.57183 C 221.57225,689.68631 221.55673,689.80018 221.53818,689.91294 C 221.53803,689.91388 221.53834,689.91489 221.53818,689.91583 C 221.51959,690.02857 221.49731,690.14028 221.47289,690.25116 C 221.47269,690.25208 221.47309,690.25312 221.47289,690.25405 C 221.44842,690.36491 221.41909,690.47475 221.38894,690.5836 C 221.38869,690.5845 221.38919,690.58558 221.38894,690.58649 C 221.35875,690.69533 221.32516,690.80357 221.28945,690.91025 C 221.28915,690.91114 221.28974,690.91226 221.28945,690.91314 C 221.14552,691.34246 220.95698,691.75305 220.72979,692.14172 C 220.72935,692.14247 220.73023,692.14387 220.72979,692.14462 C 220.61632,692.33857 220.49216,692.52621 220.3598,692.70832 C 220.35931,692.70899 220.36028,692.71054 220.3598,692.71121 C 220.29381,692.80193 220.22504,692.88959 220.15459,692.97716 C 220.15408,692.97779 220.1551,692.97942 220.15459,692.98005 C 220.08409,693.06762 220.00865,693.15305 219.93384,693.23733 C 219.93332,693.23791 219.93435,693.23964 219.93384,693.24022 C 219.78361,693.40933 219.6248,693.57091 219.45813,693.72587 C 219.37401,693.80412 219.28813,693.87981 219.20006,693.95424 C 219.11255,694.0282 219.02394,694.10101 218.93267,694.17105 C 218.56762,694.45118 218.17315,694.69945 217.75429,694.91109 C 217.54484,695.01692 217.32861,695.11319 217.10757,695.20017 C 216.88655,695.28713 216.66115,695.36448 216.42977,695.43143 C 216.31407,695.46491 216.19648,695.49567 216.07843,695.52393 C 215.60625,695.63696 215.11455,695.70831 214.61088,695.73207 C 214.48497,695.73801 214.35906,695.74074 214.23156,695.74074 C 214.10407,695.74074 213.97815,695.73801 213.85224,695.73207 C 213.34858,695.70829 212.85688,695.63706 212.3847,695.52393 C 212.26665,695.49567 212.14905,695.46491 212.03336,695.43143 C 211.80198,695.36442 211.57658,695.28719 211.35555,695.20017 C 211.02399,695.06971 210.7058,694.91566 210.40103,694.74342 C 210.19785,694.62853 209.99999,694.50543 209.81028,694.3734 C 209.43019,694.10907 209.08109,693.81204 208.76248,693.48594 C 208.68293,693.40453 208.60461,693.32222 208.52929,693.23733 C 208.22796,692.8979 207.96098,692.53119 207.73333,692.14172 C 207.61951,691.94699 207.51595,691.74884 207.42241,691.54333 C 207.42204,691.54251 207.42278,691.54126 207.42241,691.54044 C 207.37602,691.43848 207.32989,691.33553 207.28872,691.23113 C 207.28838,691.23028 207.28905,691.22909 207.28872,691.22824 C 207.24725,691.12298 207.20968,691.01784 207.17367,690.91025 C 206.99333,690.37155 206.88206,689.80552 206.85032,689.21915 C 206.84393,689.10208 206.84099,688.98501 206.84099,688.86648 C 206.84099,688.62842 206.85285,688.39586 206.8783,688.16402 C 206.89082,688.04952 206.90644,687.93568 206.92494,687.82291 C 206.92509,687.82196 206.92478,687.82096 206.92494,687.82002 C 206.94348,687.70726 206.96586,687.59557 206.99023,687.48469 C 206.99044,687.48376 206.99003,687.48272 206.99023,687.48179 C 207.01465,687.37092 207.04408,687.26111 207.07418,687.15225 C 207.07443,687.15135 207.07393,687.15025 207.07418,687.14936 C 207.10432,687.0405 207.13801,686.93229 207.17367,686.82559 C 207.17397,686.82472 207.17338,686.82357 207.17367,686.8227 C 207.20968,686.71513 207.24725,686.60994 207.28872,686.50471 C 207.41343,686.18822 207.56205,685.884 207.73333,685.59123 C 207.79024,685.49387 207.84881,685.39949 207.91056,685.30504 C 207.97275,685.20991 208.03638,685.11667 208.10333,685.02463 C 208.16928,684.93389 208.23812,684.84627 208.30853,684.75868 C 208.30902,684.75808 208.30805,684.7564 208.30853,684.75579 C 208.379,684.6682 208.45451,684.58281 208.52929,684.49851 C 208.52978,684.49795 208.52879,684.49618 208.52929,684.49562 C 208.60461,684.41077 208.68293,684.32838 208.76248,684.24702 C 208.84203,684.16565 208.92138,684.08771 209.00499,684.00997 C 209.08911,683.93172 209.17499,683.85603 209.26306,683.7816 C 209.35057,683.70764 209.43918,683.63483 209.53045,683.56479 C 209.8955,683.28466 210.28997,683.03639 210.70884,682.82475 C 210.91828,682.71893 211.13451,682.62265 211.35555,682.53568 C 211.57658,682.44872 211.80198,682.37137 212.03336,682.30442 C 212.14905,682.27093 212.26665,682.24017 212.3847,682.21191 C 212.85688,682.09888 213.34858,682.02753 213.85224,682.00377 C 213.97815,681.99783 214.10407,681.9951 214.23156,681.9951 z "
       id="path2249" />
    <path
       style="opacity:0.79393939;fill:url(#radialGradient2340);fill-opacity:1;stroke:none;stroke-width:0;stroke-miterlimit:4;stroke-opacity:1"
       d="M 214.22845,675.09771 C 206.05308,675.09771 199.41933,681.26832 199.41933,688.86937 C 199.41933,696.47041 206.05308,702.63813 214.22845,702.63813 C 222.40382,702.63813 229.04069,696.47041 229.04069,688.86937 C 229.04069,681.26832 222.40383,675.09771 214.22845,675.09771 z M 214.23156,681.9951 C 218.3114,681.9951 221.62213,685.07614 221.62213,688.86937 C 221.62213,692.66259 218.3114,695.74074 214.23156,695.74074 C 210.15172,695.74074 206.84099,692.6597 206.84099,688.86648 C 206.84099,685.07325 210.15172,681.9951 214.23156,681.9951 z "
       id="path2252" />
    <path
       id="path3318"
       d="M 388.875,274.48438 C 328.776,274.48438 279.99999,323.24992 280,383.34026 C 280,443.43061 328.77602,492.23438 388.875,492.23438 C 448.974,492.23438 497.75001,443.46883 497.75,383.37849 L 497.75,383.34026 C 497.75,323.24992 448.97401,274.48438 388.875,274.48438 z M 388.875,299.13748 C 435.44961,299.13749 473.2493,336.87746 473.2493,383.37849 C 473.24928,429.8795 435.4496,467.58127 388.875,467.58127 C 342.30041,467.58127 304.5007,429.84129 304.5007,383.34026 C 304.50069,336.83923 342.3004,299.13748 388.875,299.13748 z "
       style="opacity:0.58787878;fill:#696969;fill-opacity:1;stroke:none;stroke-width:0;stroke-miterlimit:4;stroke-dasharray:none;stroke-opacity:1;filter:url(#filter3340)"
       transform="matrix(8.3273758e-2,0,0,7.7315086e-2,181.84692,659.22846)" />
    <path
       style="opacity:1;fill:#c0c0c0;fill-opacity:1;stroke:none;stroke-width:0;stroke-miterlimit:4;stroke-dasharray:none;stroke-opacity:1"
       d="M 214.23001,680.63355 C 209.34891,680.63355 205.38744,684.32176 205.38744,688.86648 C 205.38744,693.4112 209.34891,697.1023 214.23001,697.1023 C 219.1111,697.1023 223.07258,693.41409 223.07257,688.86937 L 223.07257,688.86648 C 223.07257,684.32176 219.11111,680.63355 214.23001,680.63355 z M 214.23001,682.4981 C 218.01269,682.4981 221.08269,685.35243 221.08269,688.86937 C 221.08269,692.38631 218.01268,695.23775 214.23001,695.23775 C 210.44733,695.23775 207.37733,692.38342 207.37733,688.86648 C 207.37733,685.34953 210.44733,682.4981 214.23001,682.4981 z "
       id="path3313" />
    <path
       transform="matrix(5.7973348e-2,1.444263e-2,-1.621421e-2,5.6261192e-2,212.04186,678.14966)"
       style="opacity:0.8848485;fill:#000000;fill-opacity:1;stroke:none;stroke-width:0;stroke-miterlimit:4;stroke-opacity:1;filter:url(#filter3390)"
       d="M 417.4375,175.3125 C 415.02989,193.43332 399.52666,207.4375 380.75,207.4375 C 362.92746,207.43751 348.02626,194.83997 344.5,178.0625 C 331.44088,180.8743 318.84697,184.91264 306.8125,190.03125 C 313.40793,206.8016 306.9498,226.34422 290.875,235.625 C 275.94954,244.24221 257.48713,241.30618 245.9375,229.5625 C 237.83753,237.09373 230.29997,245.2531 223.46875,253.96875 C 237.84984,265.13757 242.1412,285.50684 232.78125,301.71875 C 223.85405,317.18111 205.44108,323.79183 189.125,318.40625 C 185.21468,330.42654 182.34593,342.92088 180.65625,355.78125 C 199.39847,357.60659 214.0625,373.40532 214.0625,392.625 C 214.06251,410.72976 201.05024,425.78568 183.875,429 C 185.15295,434.75903 186.63441,440.42917 188.375,446 C 191.73461,445.11557 195.17011,444.70473 198.5625,444.78125 C 211.0701,445.06338 223.13542,451.69333 229.84375,463.3125 C 238.97465,479.1277 235.10741,498.8917 221.5625,510.21875 C 229.12014,520.16655 237.54107,529.42721 246.71875,537.875 C 253.6971,529.42178 263.94671,524.67555 274.5,524.4375 C 281.0516,524.28972 287.69502,525.89236 293.78125,529.40625 C 310.65672,539.14928 316.95246,560.18646 308.65625,577.46875 C 320.13081,582.21944 332.10863,585.98823 344.5,588.65625 C 348.02626,571.87879 362.92747,559.28125 380.75,559.28125 C 399.52665,559.28122 415.02988,573.28542 417.4375,591.40625 C 428.65789,589.87676 439.60231,587.48112 450.1875,584.25 C 444.64994,567.87189 451.23921,549.31695 466.78125,540.34375 C 472.31419,537.14931 478.34185,535.56029 484.3125,535.40625 C 496.31646,535.09655 508.09765,540.65934 515.40625,550.90625 C 526.08052,542.82801 535.96058,533.74407 544.90625,523.8125 C 532.07538,512.37662 528.57093,493.12185 537.5,477.65625 C 544.20834,466.03707 556.27365,459.40712 568.78125,459.125 C 573.77067,459.01246 578.83833,459.91737 583.65625,461.90625 C 587.97945,451.2025 591.44467,440.05483 593.96875,428.5625 C 577.87121,424.5391 565.9375,409.9651 565.9375,392.625 C 565.93753,374.18321 579.44388,358.88357 597.09375,356.0625 C 594.64514,337.2258 589.69694,319.18039 582.59375,302.25 C 565.31629,310.52773 544.30075,304.24215 534.5625,287.375 C 525.45833,271.60611 529.29598,251.9056 542.75,240.5625 C 534.67325,231.86301 525.87282,223.82594 516.4375,216.59375 C 505.08123,229.96662 485.44847,233.76905 469.71875,224.6875 C 454.93528,216.15226 448.25725,198.94231 452.40625,183.1875 C 441.13116,179.60755 429.44601,176.94925 417.4375,175.3125 z M 388.875,309.0625 C 390.15643,309.0625 391.42194,309.09203 392.6875,309.15625 C 397.7497,309.41333 402.6917,310.18335 407.4375,311.40625 C 408.62399,311.71175 409.80593,312.04432 410.96875,312.40625 C 413.2943,313.13061 415.55975,313.96544 417.78125,314.90625 C 418.89205,315.37634 419.98156,315.88165 421.0625,316.40625 C 421.60297,316.66855 422.15451,316.94363 422.6875,317.21875 C 422.762,317.25694 422.8319,317.30531 422.90625,317.34375 C 423.63125,317.71854 424.35165,318.10228 425.0625,318.5 C 425.84516,318.93999 426.60919,319.37827 427.375,319.84375 C 429.41704,321.08578 431.40569,322.41653 433.3125,323.84375 C 434.0276,324.37865 434.74159,324.94041 435.4375,325.5 C 435.86498,325.84454 436.29913,326.17751 436.71875,326.53125 C 437.28531,327.00757 437.82304,327.50731 438.375,328 C 439.40948,328.92341 440.42694,329.86444 441.40625,330.84375 C 442.03647,331.47433 442.643,332.12854 443.25,332.78125 C 443.26011,332.79212 443.27114,332.80162 443.28125,332.8125 C 443.56193,333.11468 443.84938,333.41194 444.125,333.71875 C 444.83235,334.50614 445.51411,335.30783 446.1875,336.125 C 446.37653,336.35439 446.5637,336.58082 446.75,336.8125 C 447.31135,337.50925 447.86987,338.22042 448.40625,338.9375 C 449.07464,339.83269 449.71531,340.73053 450.34375,341.65625 C 451.22165,342.94944 452.07761,344.27517 452.875,345.625 C 453.32939,346.39358 453.76033,347.18273 454.1875,347.96875 C 455.33153,350.07385 456.37232,352.21589 457.3125,354.4375 C 457.72461,355.41063 458.12883,356.381 458.5,357.375 C 458.53791,357.47648 458.55627,357.58581 458.59375,357.6875 C 458.92333,358.58213 459.23555,359.49574 459.53125,360.40625 C 459.57188,360.53129 459.61626,360.65592 459.65625,360.78125 C 459.7713,361.14207 459.8591,361.5118 459.96875,361.875 C 460.23805,362.76698 460.5137,363.65671 460.75,364.5625 C 460.81503,364.81177 460.875,365.06222 460.9375,365.3125 C 461.09757,365.9526 461.23167,366.60345 461.375,367.25 C 461.55187,368.04784 461.72404,368.84902 461.875,369.65625 C 461.88288,369.6984 461.89845,369.73907 461.90625,369.78125 C 461.91964,369.85357 461.92432,369.92761 461.9375,370 C 462.10738,370.93277 462.2716,371.86797 462.40625,372.8125 C 462.41522,372.87547 462.42868,372.93698 462.4375,373 C 462.46643,373.20674 462.47277,373.41772 462.5,373.625 C 462.61459,374.49739 462.7285,375.36839 462.8125,376.25 C 462.91678,377.34564 463.00625,378.45385 463.0625,379.5625 C 463.12569,380.81791 463.15625,382.10398 463.15625,383.375 C 463.15625,385.93786 463.03501,388.44124 462.78125,390.9375 C 462.78021,390.94776 462.78229,390.95849 462.78125,390.96875 C 462.65491,392.20641 462.49893,393.43728 462.3125,394.65625 C 462.31095,394.66642 462.31405,394.67733 462.3125,394.6875 C 462.12558,395.9063 461.90172,397.11391 461.65625,398.3125 C 461.6542,398.32251 461.6583,398.33374 461.65625,398.34375 C 461.53327,398.94298 461.39232,399.53127 461.25,400.125 C 461.11243,400.72006 460.96429,401.31675 460.8125,401.90625 C 460.80999,401.91603 460.81502,401.92772 460.8125,401.9375 C 460.50903,403.11408 460.17146,404.28421 459.8125,405.4375 C 459.80954,405.44703 459.81546,405.45922 459.8125,405.46875 C 459.09069,407.78456 458.24887,410.06865 457.3125,412.28125 C 456.37232,414.50286 455.33153,416.6449 454.1875,418.75 C 454.18311,418.75808 454.19189,418.77317 454.1875,418.78125 C 453.04705,420.87794 451.79911,422.90634 450.46875,424.875 C 450.46387,424.88223 450.47364,424.89902 450.46875,424.90625 C 449.8055,425.887 449.11435,426.8346 448.40625,427.78125 C 448.40115,427.78807 448.41135,427.80568 448.40625,427.8125 C 447.69763,428.7592 446.93946,429.68271 446.1875,430.59375 C 446.18232,430.60003 446.19269,430.61872 446.1875,430.625 C 443.16276,434.28729 439.78826,437.6639 436.125,440.6875 C 432.45597,443.71582 428.49121,446.39968 424.28125,448.6875 C 422.17615,449.83153 420.00286,450.87232 417.78125,451.8125 C 415.55975,452.75257 413.2943,453.58873 410.96875,454.3125 C 409.80593,454.67443 408.62399,455.007 407.4375,455.3125 C 402.6917,456.53437 397.7497,457.30565 392.6875,457.5625 C 391.42194,457.62672 390.15643,457.65625 388.875,457.65625 C 387.59357,457.65625 386.32806,457.62672 385.0625,457.5625 C 380.0003,457.30542 375.0583,456.5354 370.3125,455.3125 C 369.12601,455.007 367.94407,454.67443 366.78125,454.3125 C 364.4557,453.58814 362.19025,452.75331 359.96875,451.8125 C 357.74714,450.87232 355.57385,449.83153 353.46875,448.6875 C 352.41626,448.11513 351.39602,447.49602 350.375,446.875 C 349.35398,446.25399 348.33452,445.60384 347.34375,444.9375 C 346.35569,444.2698 345.39097,443.5882 344.4375,442.875 C 342.53056,441.44859 340.69674,439.94282 338.9375,438.34375 C 338.06344,437.54927 337.2103,436.70979 336.375,435.875 C 335.52908,435.02959 334.71084,434.19768 333.90625,433.3125 C 333.90098,433.3067 333.91152,433.28705 333.90625,433.28125 C 333.10679,432.40121 332.31958,431.51149 331.5625,430.59375 C 330.80535,429.67642 330.05695,428.73472 329.34375,427.78125 C 328.63061,426.82737 327.94889,425.86345 327.28125,424.875 C 325.94585,422.89888 324.70653,420.8551 323.5625,418.75 C 322.41847,416.6449 321.37768,414.50286 320.4375,412.28125 C 320.43374,412.27237 320.44125,412.25888 320.4375,412.25 C 319.97122,411.14776 319.50759,410.03483 319.09375,408.90625 C 319.09037,408.89703 319.09713,408.88423 319.09375,408.875 C 318.67701,407.73712 318.29938,406.60057 317.9375,405.4375 C 317.58339,404.29979 317.26909,403.15969 316.96875,402 C 316.94724,401.91694 316.92747,401.83317 316.90625,401.75 C 316.6368,400.69436 316.37993,399.60411 316.15625,398.53125 C 316.10016,398.26161 316.05315,397.98945 316,397.71875 C 315.8504,396.95819 315.68863,396.20617 315.5625,395.4375 C 315.49939,395.05252 315.43216,394.6682 315.375,394.28125 C 315.3705,394.25083 315.37946,394.21793 315.375,394.1875 C 315.22591,393.17079 315.10726,392.15488 315,391.125 C 314.98148,390.94734 314.95476,390.77178 314.9375,390.59375 C 314.83544,389.53998 314.77604,388.47291 314.71875,387.40625 C 314.71421,387.32183 314.69175,387.24074 314.6875,387.15625 C 314.62329,385.89064 314.59375,384.62518 314.59375,383.34375 C 314.59375,382.06232 314.62328,380.79681 314.6875,379.53125 C 314.74876,378.27824 314.84245,377.02405 314.96875,375.78125 C 314.9698,375.77093 314.9677,375.76032 314.96875,375.75 C 315.09456,374.51221 315.25159,373.28161 315.4375,372.0625 C 315.43906,372.05232 315.43594,372.04143 315.4375,372.03125 C 315.6239,370.81231 315.84879,369.60498 316.09375,368.40625 C 316.09579,368.39629 316.09171,368.38496 316.09375,368.375 C 316.3392,367.1764 316.63502,365.98936 316.9375,364.8125 C 316.94,364.80278 316.93499,364.79097 316.9375,364.78125 C 317.24046,363.60452 317.57903,362.4347 317.9375,361.28125 C 317.94043,361.27182 317.93456,361.25943 317.9375,361.25 C 318.29938,360.08722 318.67701,358.95004 319.09375,357.8125 C 319.40601,356.96021 319.75146,356.11861 320.09375,355.28125 C 320.13263,355.18621 320.17949,355.09483 320.21875,355 C 320.38701,354.59321 320.54351,354.18437 320.71875,353.78125 C 320.98901,353.16026 321.27583,352.5495 321.5625,351.9375 C 321.75888,351.51778 321.95229,351.10291 322.15625,350.6875 C 322.6055,349.7735 323.07663,348.86279 323.5625,347.96875 C 323.56682,347.96081 323.55818,347.94544 323.5625,347.9375 C 324.13445,346.88501 324.72318,345.86477 325.34375,344.84375 C 325.96883,343.81536 326.60844,342.80738 327.28125,341.8125 C 327.94411,340.83157 328.63603,339.88434 329.34375,338.9375 C 329.34863,338.93097 329.33886,338.91278 329.34375,338.90625 C 330.052,337.95937 330.8109,337.03623 331.5625,336.125 C 331.56749,336.11895 331.55751,336.0998 331.5625,336.09375 C 332.31958,335.17649 333.10679,334.2858 333.90625,333.40625 C 336.30485,330.76738 338.87302,328.3027 341.625,326.03125 C 345.29403,323.00293 349.25879,320.31907 353.46875,318.03125 C 355.57385,316.88722 357.74714,315.84643 359.96875,314.90625 C 362.19025,313.96618 364.4557,313.13002 366.78125,312.40625 C 367.94407,312.04432 369.12601,311.71175 370.3125,311.40625 C 375.0583,310.18438 380.0003,309.4131 385.0625,309.15625 C 386.32806,309.09203 387.59357,309.0625 388.875,309.0625 z "
       id="path3394" />
    <path
       id="path3396"
       d="M 233.45522,694.1131 C 233.01717,695.09167 231.85379,695.64244 230.71851,695.35961 C 229.64091,695.09115 228.94328,694.16119 229.00086,693.16847 C 228.16589,693.12924 227.33926,693.1657 226.52901,693.27109 C 226.65711,694.30964 225.95122,695.30683 224.82951,695.58446 C 223.788,695.84224 222.7191,695.39971 222.21033,694.56806 C 221.59903,694.86783 221.0116,695.21125 220.4579,695.59646 C 221.14715,696.43857 221.07785,697.64397 220.25027,698.41092 C 219.46095,699.1424 218.24096,699.23528 217.34137,698.6879 C 216.91094,699.30218 216.53583,699.9587 216.2261,700.65348 C 217.32984,701.03802 217.96147,702.14369 217.65126,703.22006 C 217.35905,704.234 216.32929,704.88119 215.23896,704.8025 C 215.22328,705.14428 215.22133,705.48414 215.23666,705.82235 C 215.45406,705.82342 215.66841,705.85216 215.87229,705.90754 C 216.62397,706.11174 217.24646,706.66478 217.46453,707.41654 C 217.76135,708.43979 217.20853,709.4884 216.20676,709.91874 C 216.50315,710.58969 216.86283,711.23517 217.28139,711.84652 C 217.83975,711.47821 218.53607,711.3668 219.17799,711.51242 C 219.5765,711.60283 219.95231,711.79265 220.26358,712.08112 C 221.12666,712.88096 221.16777,714.15395 220.38723,714.99686 C 221.00433,715.43576 221.66771,715.82724 222.37386,716.16331 C 222.85785,715.27682 223.96214,714.79576 225.03973,715.06422 C 226.17501,715.34704 226.88634,716.36486 226.73944,717.41596 C 227.44254,717.49931 228.14293,717.53 228.83508,717.50848 C 228.76461,716.50784 229.46249,715.56794 230.54703,715.29951 C 230.93312,715.20395 231.32322,715.20575 231.6867,715.28706 C 232.41749,715.45053 233.04002,715.93952 233.31653,716.62347 C 234.0923,716.33185 234.83629,715.97193 235.53746,715.55047 C 234.94625,714.71675 235.04514,713.58562 235.83463,712.85398 C 236.42776,712.30431 237.26427,712.11474 238.02506,712.28734 C 238.32855,712.35619 238.62035,712.4832 238.87955,712.66716 C 239.3137,712.13283 239.70314,711.56071 240.04124,710.95511 C 239.13288,710.48732 238.64656,709.49136 238.92643,708.52025 C 239.22409,707.48744 240.28765,706.83404 241.40033,706.9419 C 241.55631,705.85009 241.54838,704.76495 241.39217,703.70979 C 240.21393,703.91313 239.04473,703.24456 238.72817,702.15325 C 238.43222,701.133 238.98222,700.0875 239.97876,699.65489 C 239.63083,699.04603 239.22846,698.46337 238.7747,697.91621 C 237.87224,698.49409 236.62382,698.41132 235.81935,697.66579 C 235.06326,696.9651 234.93726,695.90069 235.4424,695.08085 C 234.81847,694.71053 234.15486,694.38564 233.45522,694.1131 z M 229.56953,701.17339 C 229.64701,701.19269 229.72305,701.2134 229.79853,701.23606 C 230.10045,701.32671 230.38683,701.44428 230.65403,701.58425 C 230.72084,701.61923 230.78693,701.65566 230.8514,701.69344 C 230.98032,701.76904 231.10382,701.84992 231.22295,701.93607 C 231.28252,701.97912 231.34024,702.02383 231.39713,702.0695 C 231.42558,702.09233 231.45448,702.11604 231.48227,702.13948 C 231.48616,702.14274 231.4896,702.1465 231.49348,702.14977 C 231.53126,702.18168 231.56863,702.21402 231.60519,702.24701 C 231.64541,702.28343 231.68453,702.31949 231.72332,702.35709 C 231.82674,702.45741 231.9255,702.56189 232.01775,702.67054 C 232.05236,702.71127 232.08646,702.75349 232.1195,702.79531 C 232.13979,702.82104 232.16066,702.84623 232.18033,702.87236 C 232.20689,702.90757 232.23134,702.94366 232.25676,702.97956 C 232.3044,703.04686 232.35073,703.11489 232.39414,703.18448 C 232.42207,703.22929 232.44818,703.27507 232.47435,703.32076 C 232.47478,703.32152 232.47529,703.32222 232.47573,703.32298 C 232.48782,703.34414 232.50041,703.36511 232.51212,703.38645 C 232.54218,703.4412 232.57046,703.49636 232.59798,703.55227 C 232.60571,703.56797 232.61337,703.58347 232.6209,703.59925 C 232.64359,703.64672 232.66588,703.69496 232.68674,703.7432 C 232.71271,703.80341 232.73695,703.86334 232.76001,703.92465 C 232.79221,704.01029 232.82257,704.09743 232.849,704.18504 C 232.86406,704.23493 232.87738,704.28562 232.89052,704.33607 C 232.92572,704.4712 232.95407,704.60684 232.97506,704.74542 C 232.98427,704.80612 232.99305,704.86655 232.99945,704.92781 C 233.0001,704.93407 232.99945,704.94047 233.00008,704.94673 C 233.00556,705.00179 233.00969,705.05766 233.01288,705.11311 C 233.01332,705.12072 233.01399,705.12837 233.01438,705.13599 C 233.01552,705.15793 233.01486,705.17996 233.01562,705.20195 C 233.01751,705.25597 233.01982,705.30995 233.01948,705.36423 C 233.01939,705.37917 233.01898,705.3941 233.01872,705.40906 C 233.01806,705.44732 233.01567,705.48579 233.0139,705.52416 C 233.01171,705.5715 233.00919,705.61897 233.00529,705.66645 C 233.00509,705.66893 233.00537,705.67144 233.00516,705.67392 C 233.00481,705.67817 233.00389,705.68239 233.00352,705.68664 C 232.99874,705.74144 232.99357,705.79629 232.98647,705.85121 C 232.986,705.85487 232.98582,705.85852 232.98533,705.86218 C 232.98375,705.8742 232.98072,705.88611 232.97902,705.89813 C 232.97187,705.94871 232.9647,705.99921 232.95555,706.04985 C 232.94417,706.11278 232.9317,706.17619 232.9172,706.23912 C 232.90076,706.31038 232.88185,706.38287 232.86134,706.45405 C 232.81997,706.59758 232.77224,706.73595 232.71661,706.87193 C 232.71638,706.87249 232.71633,706.87312 232.7161,706.87368 C 232.68849,706.94109 232.65919,707.00768 232.62824,707.07314 C 232.62798,707.07368 232.628,707.07434 232.62774,707.07488 C 232.59676,707.14033 232.56374,707.20459 232.52955,707.26801 C 232.52927,707.26854 232.52933,707.26923 232.52905,707.26976 C 232.51194,707.30147 232.49392,707.33229 232.47574,707.3634 C 232.45781,707.39466 232.43923,707.42584 232.42053,707.45657 C 232.42022,707.45708 232.42034,707.45781 232.42003,707.45832 C 232.38269,707.51964 232.34339,707.58009 232.30308,707.63927 C 232.30274,707.63976 232.30291,707.64053 232.30257,707.64102 C 232.22155,707.75984 232.13379,707.87508 232.04146,707.98489 C 231.94876,708.09515 231.85126,708.19943 231.74811,708.30009 C 231.74772,708.30048 231.748,708.30146 231.74761,708.30184 C 231.64481,708.40209 231.53662,708.49689 231.42441,708.5871 C 231.424,708.58743 231.42432,708.58852 231.4239,708.58885 C 231.36797,708.63379 231.31089,708.67645 231.2528,708.7188 C 231.25238,708.7191 231.25271,708.72024 231.25229,708.72055 C 231.19417,708.76289 231.13342,708.80319 231.07325,708.84289 C 231.07284,708.84316 231.07317,708.84436 231.07275,708.84464 C 230.83076,709.00418 230.57223,709.14245 230.30194,709.25661 C 230.03122,709.37094 229.74819,709.46153 229.45672,709.52624 C 229.31097,709.5586 229.16277,709.58416 229.01328,709.60335 C 228.86378,709.62253 228.71332,709.63524 228.56103,709.64074 C 228.48488,709.64349 228.40805,709.64432 228.33138,709.64355 C 228.02472,709.6405 227.71346,709.60925 227.40324,709.54739 C 227.32569,709.53192 227.2487,709.51451 227.17122,709.49521 C 227.09374,709.47591 227.0177,709.45519 226.94222,709.43254 C 226.6403,709.34189 226.35392,709.22432 226.08671,709.08435 C 226.01991,709.04937 225.95381,709.01294 225.88935,708.97516 C 225.76043,708.89956 225.63693,708.81868 225.5178,708.73253 C 225.39865,708.64642 225.28405,708.55539 225.17523,708.45961 C 225.12083,708.41171 225.06914,708.36167 225.01743,708.31151 C 224.96572,708.26135 224.91457,708.20958 224.86542,708.15734 C 224.81646,708.10506 224.76913,708.05236 224.72299,707.99806 C 224.63072,707.88945 224.54415,707.7775 224.46359,707.66144 C 224.42356,707.60378 224.38553,707.54392 224.3485,707.48459 C 224.311,707.4245 224.27495,707.36558 224.24059,707.30389 C 224.24036,707.30349 224.24132,707.30254 224.2411,707.30214 C 224.20696,707.24081 224.17372,707.17913 224.14276,707.11633 C 224.11179,707.05355 224.08174,706.98954 224.05401,706.92539 C 224.02628,706.86123 224.00062,706.79698 223.97621,706.73157 C 223.92736,706.60078 223.88542,706.46765 223.85022,706.33253 C 223.81503,706.1974 223.78667,706.06176 223.76568,705.92318 C 223.7656,705.92263 223.76627,705.92199 223.76619,705.92143 C 223.75579,705.85268 223.74572,705.78337 223.73891,705.71393 C 223.73886,705.71336 223.73947,705.71275 223.73941,705.71218 C 223.73258,705.64218 223.72809,705.57284 223.72499,705.50225 C 223.72194,705.4332 223.72134,705.36462 223.7219,705.29515 C 223.72194,705.29017 223.72209,705.28518 223.72215,705.2802 C 223.7229,705.21702 223.72496,705.1521 223.72876,705.08864 C 223.72972,705.0727 223.73127,705.05675 223.73242,705.04079 C 223.73565,704.99594 223.73801,704.95139 223.74279,704.90644 C 223.74519,704.88393 223.74733,704.86139 223.75011,704.83886 C 223.75033,704.83709 223.75141,704.83538 223.75163,704.83361 C 223.75902,704.77442 223.76825,704.71574 223.77838,704.65645 C 223.78013,704.64622 223.78135,704.63598 223.78318,704.62575 C 223.79402,704.5652 223.80765,704.50455 223.8214,704.44395 C 223.82249,704.43915 223.82244,704.43427 223.82354,704.42947 C 223.84009,704.35763 223.85873,704.28631 223.87941,704.21455 C 223.90009,704.14278 223.9223,704.07235 223.94661,704.00245 C 223.97054,703.93319 223.99645,703.86437 224.02414,703.79667 C 224.02437,703.79611 224.02442,703.79548 224.02465,703.79492 C 224.05223,703.72749 224.08159,703.66094 224.11251,703.59546 C 224.11276,703.59492 224.11275,703.59426 224.11301,703.59371 C 224.14395,703.52826 224.17704,703.46403 224.2112,703.40058 C 224.21148,703.40006 224.21142,703.39936 224.2117,703.39883 C 224.24589,703.3354 224.28293,703.27338 224.32021,703.21203 C 224.32052,703.21152 224.32041,703.21079 224.32072,703.21028 C 224.35803,703.14894 224.39738,703.08853 224.43767,703.02933 C 224.438,703.02885 224.43785,703.02806 224.43818,703.02758 C 224.47882,702.96791 224.52001,702.90991 224.56357,702.85248 C 224.5962,702.80945 224.63067,702.76753 224.66488,702.72578 C 224.66877,702.72105 224.67308,702.71664 224.67698,702.71192 C 224.69372,702.69167 224.70978,702.67113 224.72688,702.65119 C 224.75324,702.62049 224.78044,702.5906 224.80766,702.56064 C 224.8263,702.5401 224.84469,702.51978 224.86373,702.49958 C 224.90564,702.45516 224.94883,702.41126 224.99264,702.36851 C 224.99303,702.36813 224.99275,702.36713 224.99314,702.36675 C 225.04471,702.31643 225.09677,702.26816 225.15077,702.22032 C 225.20516,702.17215 225.26011,702.12533 225.31684,702.07975 C 225.37275,702.03479 225.42988,701.99217 225.48795,701.9498 C 225.48835,701.94951 225.48805,701.94834 225.48845,701.94805 C 225.54656,701.90569 225.60734,701.86542 225.66749,701.82571 C 225.66789,701.82545 225.6676,701.82422 225.668,701.82396 C 225.72858,701.78399 225.79055,701.74597 225.85308,701.70875 C 226.0407,701.5971 226.23576,701.49775 226.43881,701.41199 C 226.70952,701.29766 226.99256,701.20707 227.28403,701.14236 C 227.42977,701.11 227.57797,701.08444 227.72747,701.06525 C 227.87696,701.04607 228.02743,701.03336 228.17972,701.02786 C 228.25587,701.0251 228.3327,701.02428 228.40937,701.02504 C 228.71603,701.0281 229.02729,701.05934 229.3375,701.12121 C 229.41506,701.13668 229.49205,701.15408 229.56953,701.17339 z "
       style="opacity:1;fill:#c0c0c0;fill-opacity:1;stroke:none;stroke-width:0;stroke-miterlimit:4;stroke-opacity:1" />
    <path
       id="path3398"
       d="M 231.13165,695.74953 C 225.41972,694.32654 219.54733,697.4666 218.02256,702.75733 C 216.4978,708.04807 219.89529,713.49562 225.60721,714.9186 C 231.31914,716.34159 237.19291,713.20375 238.71768,707.91301 C 240.24244,702.62228 236.84357,697.17251 231.13165,695.74953 z M 229.57047,701.17362 C 229.64795,701.19292 229.72399,701.21364 229.79947,701.2363 C 230.1014,701.32695 230.38777,701.44451 230.65498,701.58448 C 230.72178,701.61946 230.78788,701.65589 230.85235,701.69368 C 230.98126,701.76927 231.10476,701.85015 231.22389,701.9363 C 231.40262,702.06548 231.5691,702.20691 231.72426,702.35733 C 231.82768,702.45764 231.92644,702.56213 232.0187,702.67078 C 232.15711,702.83369 232.28334,703.00555 232.39508,703.18472 C 232.6185,703.54318 232.78594,703.93081 232.89147,704.33631 C 232.92666,704.47143 232.95502,704.60707 232.97601,704.74565 C 233.04969,705.2313 233.03409,705.73587 232.91815,706.23936 C 232.90171,706.31062 232.8828,706.3831 232.86228,706.45429 C 232.82092,706.59782 232.77318,706.73619 232.71755,706.87217 C 232.71732,706.87273 232.71727,706.87336 232.71705,706.87392 C 232.68943,706.94133 232.66013,707.00791 232.62919,707.07337 C 232.62893,707.07392 232.62894,707.07457 232.62868,707.07512 C 232.59771,707.14056 232.56468,707.20482 232.5305,707.26825 C 232.53021,707.26878 232.53028,707.26947 232.52999,707.27 C 232.49578,707.33341 232.45879,707.39547 232.42148,707.4568 C 232.42117,707.45732 232.42128,707.45804 232.42097,707.45855 C 232.38364,707.51988 232.34434,707.58032 232.30402,707.63951 C 232.30369,707.63999 232.30385,707.64077 232.30352,707.64126 C 232.14115,707.87938 231.95493,708.09941 231.74906,708.30033 C 231.74866,708.30072 231.74895,708.30169 231.74855,708.30208 C 231.64576,708.40232 231.53757,708.49712 231.42536,708.58734 C 231.42494,708.58767 231.42526,708.58876 231.42485,708.58909 C 231.36892,708.63402 231.31184,708.67668 231.25374,708.71903 C 231.25333,708.71934 231.25366,708.72048 231.25324,708.72078 C 231.19512,708.76313 231.13437,708.80343 231.0742,708.84312 C 231.07378,708.8434 231.07411,708.8446 231.0737,708.84487 C 230.9529,708.92451 230.8282,708.99829 230.69987,709.06687 C 230.6351,709.10152 230.56971,709.13434 230.5032,709.16607 C 230.43712,709.19759 230.37057,709.22826 230.30288,709.25684 C 230.03217,709.37118 229.74913,709.46176 229.45766,709.52648 C 229.31192,709.55884 229.16372,709.58439 229.01422,709.60358 C 228.86473,709.62277 228.71426,709.63547 228.56197,709.64098 C 228.48582,709.64373 228.40899,709.64455 228.33232,709.64379 C 228.02566,709.64073 227.71441,709.60949 227.40419,709.54762 C 227.32663,709.53216 227.24964,709.51475 227.17216,709.49545 C 227.09469,709.47615 227.01865,709.45543 226.94316,709.43277 C 226.64124,709.34212 226.35486,709.22456 226.08766,709.08459 C 226.02085,709.04961 225.95476,709.01318 225.89029,708.97539 C 225.76138,708.8998 225.63787,708.81892 225.51874,708.73277 C 225.34002,708.60359 225.17353,708.46216 225.01837,708.31174 C 224.91495,708.21142 224.81619,708.10694 224.72394,707.99829 C 224.53908,707.78072 224.37876,707.54804 224.24204,707.30238 C 224.20791,707.24105 224.17467,707.17936 224.14371,707.11656 C 224.01981,706.86545 223.92156,706.60302 223.85117,706.33276 C 223.81597,706.19764 223.78762,706.062 223.76663,705.92342 C 223.76655,705.92286 223.76722,705.92222 223.76713,705.92167 C 223.75673,705.85292 223.74666,705.7836 223.73986,705.71416 C 223.7398,705.7136 223.74042,705.71298 223.74036,705.71242 C 223.73353,705.64241 223.72904,705.57307 223.72593,705.50249 C 223.71033,705.14904 223.74147,704.78951 223.82449,704.42971 C 223.84103,704.35786 223.85967,704.28655 223.88036,704.21478 C 223.92189,704.07066 223.96967,703.93166 224.02559,703.79515 C 224.05318,703.72773 224.08253,703.66117 224.11345,703.5957 C 224.11371,703.59515 224.1137,703.5945 224.11395,703.59395 C 224.1449,703.52849 224.17798,703.46426 224.21214,703.40082 C 224.21242,703.40029 224.21236,703.3996 224.21264,703.39907 C 224.24683,703.33564 224.28387,703.27362 224.32116,703.21227 C 224.32147,703.21176 224.32135,703.21102 224.32166,703.21051 C 224.35897,703.14918 224.39832,703.08876 224.43862,703.02956 C 224.43894,703.02908 224.43879,703.0283 224.43912,703.02781 C 224.47977,702.96814 224.52095,702.91015 224.56451,702.85272 C 224.69552,702.67999 224.83892,702.51831 224.99408,702.36699 C 225.04565,702.31666 225.09772,702.26839 225.15172,702.22056 C 225.20611,702.17238 225.26105,702.12556 225.31779,702.07998 C 225.3737,702.03503 225.43082,701.9924 225.48889,701.95004 C 225.48929,701.94974 225.489,701.94858 225.4894,701.94829 C 225.5475,701.90593 225.60829,701.86566 225.66844,701.82595 C 225.66884,701.82568 225.66854,701.82446 225.66894,701.8242 C 225.72952,701.78423 225.79149,701.7462 225.85403,701.70899 C 225.91657,701.67177 225.97839,701.6366 226.04276,701.60219 C 226.10753,701.56755 226.17293,701.53473 226.23943,701.503 C 226.30552,701.47148 226.37207,701.44081 226.43975,701.41223 C 226.71047,701.29789 226.9935,701.20731 227.28497,701.14259 C 227.43072,701.11023 227.57892,701.08468 227.72842,701.06549 C 227.87791,701.0463 228.02838,701.0336 228.18067,701.02809 C 228.25681,701.02534 228.33365,701.02452 228.41031,701.02528 C 228.71698,701.02834 229.02823,701.05958 229.33845,701.12145 C 229.416,701.13691 229.493,701.15432 229.57047,701.17362 z "
       style="opacity:0.79393939;fill:#a9a9a9;fill-opacity:1;stroke:none;stroke-width:0;stroke-miterlimit:4;stroke-opacity:1" />
    <path
       id="path3400"
       d="M 230.77203,696.99736 C 225.80389,695.75967 220.69595,698.49116 219.36974,703.09295 C 218.04353,707.69474 220.99869,712.43308 225.96683,713.67076 C 230.93497,714.90846 236.04429,712.17919 237.3705,707.5774 C 238.69672,702.97561 235.74016,698.23505 230.77203,696.99736 z M 229.57047,701.17362 C 232.04977,701.79128 233.52412,704.15781 232.86228,706.45429 C 232.20045,708.75076 229.65146,710.1131 227.17216,709.49545 C 224.69286,708.87779 223.21852,706.51126 223.88036,704.21478 C 224.54219,701.9183 227.09117,700.55597 229.57047,701.17362 z "
       style="opacity:0.79393939;fill:url(#radialGradient3406);fill-opacity:1;stroke:none;stroke-width:0;stroke-miterlimit:4;stroke-opacity:1" />
    <path
       transform="matrix(5.0605078e-2,1.260701e-2,-1.3489774e-2,4.6807764e-2,213.86276,682.48755)"
       style="opacity:0.58787878;fill:#696969;fill-opacity:1;stroke:none;stroke-width:0;stroke-miterlimit:4;stroke-dasharray:none;stroke-opacity:1;filter:url(#filter3340)"
       d="M 388.875,274.48438 C 328.776,274.48438 279.99999,323.24992 280,383.34026 C 280,443.43061 328.77602,492.23438 388.875,492.23438 C 448.974,492.23438 497.75001,443.46883 497.75,383.37849 L 497.75,383.34026 C 497.75,323.24992 448.97401,274.48438 388.875,274.48438 z M 388.875,299.13748 C 435.44961,299.13749 473.2493,336.87746 473.2493,383.37849 C 473.24928,429.8795 435.4496,467.58127 388.875,467.58127 C 342.30041,467.58127 304.5007,429.84129 304.5007,383.34026 C 304.50069,336.83923 342.3004,299.13748 388.875,299.13748 z "
       id="path3402" />
    <path
       id="path3404"
       d="M 229.80709,700.34908 C 226.84087,699.61012 223.78999,701.24328 222.99704,703.99473 C 222.20408,706.74617 223.96744,709.58056 226.93366,710.31952 C 229.89988,711.05848 232.95076,709.42532 233.74371,706.67387 L 233.74421,706.67212 C 234.53717,703.92068 232.77331,701.08804 229.80709,700.34908 z M 229.48177,701.47791 C 231.78048,702.05058 233.14809,704.24341 232.53446,706.37262 C 231.92083,708.50183 229.5577,709.76336 227.25898,709.19069 C 224.96026,708.61802 223.59266,706.42519 224.20628,704.29598 C 224.81991,702.16677 227.18305,700.90524 229.48177,701.47791 z "
       style="opacity:1;fill:#c0c0c0;fill-opacity:1;stroke:none;stroke-width:0;stroke-miterlimit:4;stroke-dasharray:none;stroke-opacity:1" />
  </g>
</svg>
