<svg width="512" height="512" viewBox="0 0 512 512" fill="none" xmlns="http://www.w3.org/2000/svg">
<g opacity="0.9">
<mask id="mask0_142_417" style="mask-type:luminance" maskUnits="userSpaceOnUse" x="16" y="15" width="476" height="471">
<path d="M16 15.792H492V485.607H16V15.792Z" fill="white"/>
</mask>
<g mask="url(#mask0_142_417)">
<mask id="mask1_142_417" style="mask-type:luminance" maskUnits="userSpaceOnUse" x="17" y="16" width="475" height="470">
<path d="M276.656 25.8934L482.828 229.386C495.016 241.416 495.016 260.924 482.828 272.953L276.656 476.446C264.469 488.475 244.703 488.475 232.516 476.446L26.3438 272.953C14.1562 260.924 14.1562 241.416 26.3438 229.386L232.516 25.8934C244.703 13.8643 264.469 13.8643 276.656 25.8934Z" fill="white"/>
</mask>
<g mask="url(#mask1_142_417)">
<path d="M260.547 9.99326L498.938 245.286C502.234 248.54 502.234 253.799 498.938 257.053L260.547 492.346C257.25 495.6 251.922 495.6 248.625 492.346L10.2344 257.053C6.9375 253.799 6.9375 248.54 10.2344 245.286L248.625 9.99326C251.922 6.73923 257.25 6.73923 260.547 9.99326Z" fill="#3584E4"/>
</g>
</g>
<mask id="mask2_142_417" style="mask-type:luminance" maskUnits="userSpaceOnUse" x="192" y="126" width="300" height="360">
<path d="M192 126.337H492V485.607H192V126.337Z" fill="white"/>
</mask>
<g mask="url(#mask2_142_417)">
<mask id="mask3_142_417" style="mask-type:luminance" maskUnits="userSpaceOnUse" x="17" y="16" width="475" height="470">
<path d="M276.656 25.8934L482.828 229.386C495.016 241.416 495.016 260.924 482.828 272.953L276.656 476.446C264.469 488.475 244.703 488.475 232.516 476.446L26.3438 272.953C14.1562 260.924 14.1562 241.416 26.3438 229.386L232.516 25.8934C244.703 13.8643 264.469 13.8643 276.656 25.8934Z" fill="white"/>
</mask>
<g mask="url(#mask3_142_417)">
<path d="M403.734 129.792L394.094 158.507C393.625 158.476 393.172 158.461 392.703 158.446C384.891 158.492 377.094 159.093 369.359 160.219L355.906 132.783C346.156 134.634 336.578 137.194 327.219 140.464L329.453 170.691C321.812 173.775 314.391 177.43 307.281 181.594L284.156 161.268C275.891 166.681 268.047 172.68 260.688 179.25L274.438 206.269C268.578 212.037 263.156 218.221 258.203 224.775L228.891 214.705C223.375 222.832 218.469 231.361 214.25 240.213L237.391 259.953C234.219 267.494 231.625 275.267 229.609 283.194L198.656 284.967C196.688 294.56 195.453 304.291 194.969 314.069L224.062 323.584C224.047 324.031 224.016 324.494 224 324.957C224.062 332.668 224.656 340.363 225.797 347.997L198 361.275C199.875 370.883 202.469 380.352 205.781 389.575L236.406 387.385C239.547 394.926 243.234 402.252 247.453 409.268L226.859 432.093C232.344 440.251 238.438 447.993 245.078 455.257L272.453 441.685C278.297 447.469 284.562 452.82 291.203 457.694L281.016 486.641C289.234 492.085 297.875 496.912 306.844 501.091L326.844 478.251C334.5 481.382 342.359 483.942 350.391 485.931L352.203 516.482C361.922 518.41 371.766 519.628 381.672 520.122L391.312 491.406C391.781 491.421 392.234 491.452 392.703 491.468C400.516 491.406 408.312 490.82 416.047 489.694L429.5 517.13C439.234 515.279 448.828 512.719 458.172 509.45L455.953 479.223C463.594 476.123 471.016 472.483 478.125 468.319L501.25 488.63C509.516 483.232 517.359 477.218 524.719 470.663L510.969 443.629C516.828 437.876 522.25 431.692 527.188 425.138L556.516 435.193C562.031 427.065 566.922 418.553 571.156 409.7L548.016 389.96C551.188 382.403 553.781 374.646 555.797 366.719L586.75 364.93C588.719 355.338 589.938 345.622 590.438 335.844L561.344 326.329C561.359 325.866 561.391 325.419 561.406 324.957C561.344 317.246 560.75 309.55 559.609 301.916L587.406 288.638C585.531 279.015 582.938 269.561 579.625 260.323L549 262.528C545.859 254.972 542.172 247.662 537.953 240.645L558.531 217.82C553.062 209.662 546.969 201.92 540.328 194.656L512.938 208.228C507.109 202.444 500.844 197.093 494.203 192.204L504.391 163.273C496.156 157.829 487.531 152.986 478.562 148.822L458.562 171.662C450.906 168.532 443.047 165.971 435.016 163.982L433.203 133.431C423.484 131.488 413.641 130.27 403.734 129.792ZM392.703 202.768C461.078 202.768 516.5 257.47 516.5 324.957C516.5 392.443 461.078 447.145 392.703 447.145C324.328 447.145 268.906 392.443 268.906 324.957C268.906 257.47 324.328 202.768 392.703 202.768Z" fill="#98C1F1"/>
</g>
</g>
<mask id="mask4_142_417" style="mask-type:luminance" maskUnits="userSpaceOnUse" x="16" y="15" width="228" height="353">
<path d="M16 15.792H244V367.166H16V15.792Z" fill="white"/>
</mask>
<g mask="url(#mask4_142_417)">
<mask id="mask5_142_417" style="mask-type:luminance" maskUnits="userSpaceOnUse" x="17" y="16" width="475" height="470">
<path d="M276.656 25.8934L482.828 229.386C495.016 241.416 495.016 260.924 482.828 272.953L276.656 476.446C264.469 488.475 244.703 488.475 232.516 476.446L26.3438 272.953C14.1562 260.924 14.1562 241.416 26.3438 229.386L232.516 25.8934C244.703 13.8643 264.469 13.8643 276.656 25.8934Z" fill="white"/>
</mask>
<g mask="url(#mask5_142_417)">
<path d="M55.375 -24.8447L45.7187 3.87099C45.2656 3.84015 44.7969 3.82472 44.3281 3.79388C36.5156 3.85557 28.7187 4.45702 21 5.58283L7.53123 -21.8529C-2.20312 -20.0022 -11.7969 -17.4422 -21.1406 -14.1727L-18.9063 16.0543C-26.5625 19.1387 -33.9688 22.7783 -41.0781 26.9423L-64.2188 6.63153C-72.4844 12.0446 -80.3281 18.0438 -87.6875 24.6135L-73.9375 51.6328C-79.7969 57.4007 -85.2188 63.5849 -90.1563 70.1238L-119.469 60.0687C-125 68.196 -129.891 76.7244 -134.125 85.5766L-110.969 105.317C-114.141 112.858 -116.75 120.631 -118.766 128.558L-149.719 130.331C-151.672 139.924 -152.906 149.655 -153.391 159.417L-124.297 168.948C-124.328 169.395 -124.344 169.858 -124.375 170.32C-124.313 178.031 -123.703 185.727 -122.563 193.345L-150.359 206.639C-148.5 216.247 -145.891 225.716 -142.594 234.938L-111.953 232.733C-108.828 240.29 -105.141 247.6 -100.922 254.617L-121.5 277.457C-116.031 285.615 -109.938 293.357 -103.281 300.621L-75.9063 287.049C-70.0625 292.833 -63.7969 298.184 -57.1719 303.057L-67.3594 331.989C-59.125 337.448 -50.4844 342.275 -41.5313 346.455L-21.5156 323.615C-13.875 326.73 -6 329.305 2.03123 331.295L3.82811 361.846C13.5469 363.774 23.3906 364.992 33.2969 365.47L42.9375 336.754C43.4062 336.785 43.875 336.816 44.3281 336.831C52.1406 336.77 59.9375 336.168 67.6719 335.042L81.1406 362.478C90.875 360.643 100.453 358.067 109.812 354.813L107.578 324.571C115.234 321.487 122.641 317.847 129.75 313.683L152.891 333.994C161.156 328.596 169 322.581 176.344 316.012L162.594 288.992C168.469 283.225 173.891 277.056 178.828 270.501L208.141 280.557C213.672 272.429 218.562 263.901 222.797 255.064L199.641 235.324C202.812 227.767 205.422 219.995 207.437 212.068L238.375 210.294C240.344 200.702 241.578 190.986 242.062 181.208L212.969 171.693C213 171.23 213.016 170.768 213.047 170.32C212.984 162.609 212.375 154.914 211.234 147.28L239.031 133.986C237.156 124.378 234.562 114.925 231.266 105.687L200.625 107.892C197.5 100.335 193.812 93.0254 189.594 86.0084L210.172 63.1685C204.687 55.0103 198.609 47.2684 191.953 40.0201L164.578 53.5914C158.734 47.8082 152.469 42.4413 145.844 37.568L156.031 8.63638C147.797 3.19242 139.156 -1.65008 130.187 -5.82943L110.187 17.0259C102.547 13.8953 94.6719 11.3198 86.6406 9.33037L84.8437 -21.2051C75.125 -23.1483 65.2656 -24.3666 55.375 -24.8447Z" fill="#1A5FB4"/>
</g>
</g>
<path d="M20.6716 238.686C15.7341 250.7 18.2185 264.919 28.1091 274.681L230.75 474.704C243.953 487.735 265.219 487.735 278.422 474.704L481.062 274.681C490.953 264.919 493.437 250.7 488.5 238.686C486.859 242.711 484.375 246.474 481.062 249.744L278.422 449.751C265.219 462.783 243.953 462.783 230.75 449.751L28.1091 249.744C24.7966 246.474 22.3123 242.711 20.6716 238.686Z" fill="#1A5FB4" fill-opacity="0.501961"/>
</g>
<path fill-rule="evenodd" clip-rule="evenodd" d="M61.0103 313.282V316.901C61.2194 317.019 61.4902 317.101 61.687 317.23C61.2129 327.865 63.216 337.277 65.4091 346.84C65.8816 347.596 69.1579 347.036 67.7777 348.485C67.2322 350.051 65.5657 346.889 65.7475 348.815C66.8417 355.379 69.4791 360.245 70.4847 365.923C70.9199 368.382 70.8817 371.006 71.1615 373.819C71.3978 376.192 72.0542 378.356 71.8382 381.057C71.5553 384.566 70.9654 388.733 70.1463 391.585C69.8852 392.498 69.0757 393.395 68.7929 394.217C68.2333 395.843 68.5869 397.444 68.1161 399.152C67.2627 402.243 65.0246 406.014 64.7323 408.693C64.6578 409.375 64.5956 410.592 64.7323 411.654C65.0852 414.406 65.1881 416.616 66.7626 417.905C65.5472 420.064 67.6751 422.402 67.7777 424.486C67.6298 424.543 68.0033 424.705 68.1161 424.815C69.975 427.722 71.3991 431.054 73.53 433.698C75.3688 439.01 77.243 445.703 78.2672 452.451C79.2014 458.603 83.1713 466.502 82.6661 472.849C82.5821 473.907 82.347 474.891 81.9894 475.81H84.358H89.4336C96.7677 475.287 95.5563 475.617 102.292 475.81H103.645V474.494C103.272 473.961 102.925 473.425 102.63 472.849C101.433 470.517 101.176 468.098 100.262 465.282C99.1394 461.829 98.4862 458.468 98.2313 455.083C96.8992 453.395 97.1441 451.487 96.5394 448.832C96.2317 447.482 95.402 445.879 95.1859 444.555C94.6528 441.274 95.4591 439.398 95.5244 436.988C95.5943 434.385 94.9455 431.133 94.8476 428.105C94.529 418.36 93.312 409.76 94.8476 400.139C95.0822 398.67 95.7166 397.536 95.8627 396.191C95.9684 395.218 95.5736 393.834 95.8627 392.901C96.09 392.169 96.7788 391.587 97.5546 390.927C98.9933 400.308 103.409 411.349 106.691 417.576C105.711 419.86 107.383 421.559 107.706 423.17C108.405 426.662 108.66 430.706 109.736 434.685C110.818 438.682 112.622 442.805 112.443 445.871C112.312 448.109 110.514 450.01 111.428 452.451C111.315 452.719 111.215 453.149 111.09 453.438H114.812C123.777 454.19 121.172 449.904 130.715 455.412H135.114C133.14 453.054 131.389 450.782 130.038 448.174C128.035 434.237 125.101 413.462 124.963 395.862C124.932 391.894 125.123 386.55 125.978 383.36C126.485 381.463 127.804 380.096 128.347 378.754C130.119 374.362 129.043 368.504 129.7 362.962C130.502 362.291 130.512 360.925 131.392 360.33C135.432 348.654 141.724 336.216 141.543 321.836L138.836 318.875C138.76 319.022 138.566 319.048 138.498 319.204C126.786 315.183 112.709 327.492 104.322 318.217C90.9567 316.57 76.182 318.269 65.4091 313.282C64.0507 313.17 62.9549 313.306 62.0254 313.611C61.7398 313.429 61.3119 313.437 61.0103 313.282Z" fill="#F0E68C"/>
<path fill-rule="evenodd" clip-rule="evenodd" d="M131.39 182.337C133.312 187.04 132.551 192.21 131.848 197.074C131.392 200.294 130.932 203.554 131.253 206.807C130.22 207.976 128.5 207.096 127.63 206.182C98.5132 190.682 87.7185 183.022 78.3677 183.691C76.991 184.474 75.9894 187.634 75.4365 188.976C74.7498 191.11 74.3104 193.329 74.2545 195.568C73.1415 196.589 71.6488 197.094 70.4776 198.049C65.1682 201.675 60.51 206.357 54.4092 208.768C53.1013 209.438 51.4333 209.308 50.3205 210.359C48.5637 211.429 46.3953 211.248 44.41 211.351C43.192 211.355 41.9537 211.312 40.7632 211.608C39.4989 212.477 41.5194 214.144 42.5107 214.136C46.2568 214.12 49.9954 213.239 53.738 213.69C54.8603 214.519 53.0301 215.534 52.2561 215.884C51.1221 216.517 49.7592 217.201 49.3892 218.524C49.361 219.987 51.1797 220.382 52.253 220.946C54.2356 221.788 56.5961 222.654 57.452 224.771C57.4448 226.159 57.7161 227.519 59.1481 228.143C60.8504 229.422 62.9811 230.262 64.2509 232.016C64.8818 233.291 63.7383 234.52 62.7091 235.181C61.4609 235.829 60.6429 236.956 59.5917 237.837C56.3303 240.68 52.219 242.719 49.7785 246.369C49.091 247.486 48.6868 248.804 48.8268 250.112C46.2763 252.404 43.8328 254.897 40.7877 256.576C39.416 257.128 38.216 258.005 37.2979 259.138C34.95 261.671 32.8299 264.39 30.6441 267.053C26.9335 275.36 24.9233 284.443 19.732 292.08C18.3277 294.084 16.795 296.067 14.8391 297.588C13.2525 298.473 11.3521 299.656 11.2324 301.62C11.3335 303.564 13.2125 304.763 14.8136 305.585C18.1941 307.229 22.079 308.084 25.8478 307.515C28.3013 307.295 30.9681 307.247 33.1521 308.511C34.6793 309.532 34.6757 311.658 33.8131 313.091C33.1921 313.845 33.4861 314.565 34.4899 314.631C38.6805 315.943 43.0818 314.912 47.3189 314.43C50.0001 314.146 52.7826 314.124 55.3655 314.975C57.297 314.576 59.7383 315.062 60.6497 316.952C62.1523 319.648 61.4536 322.951 62.9039 325.655C63.2778 326.461 64.2862 326.403 63.9307 325.367C64.1748 322.76 63.6594 320.019 64.6398 317.522C65.4083 316.138 67.2541 316.414 68.4694 316.997C69.8693 317.689 71.2658 318.388 72.8482 318.577C81.7211 320.424 90.8988 320.405 99.8865 319.454C103.167 322.397 107.506 324.43 112.041 324.286C114.5 324.254 116.979 323.904 119.317 323.163C124.039 321.04 129.405 320.227 134.562 320.917C136.296 321.182 138.034 321.71 139.448 322.751C139.477 323.754 139.413 326.04 139.447 326.221C139.748 323.444 140.153 320.437 142.056 318.221C143.28 316.842 145.084 317.537 146.582 317.877C152.42 318.216 158.414 318.673 164.127 317.132C167.088 316.343 169.883 314.964 172.273 313.088C175.608 313.306 179.143 312.851 181.994 311.053C183.385 310.113 184.206 308.32 183.591 306.72C183.067 305.152 181.802 303.946 181.275 302.374C178.013 295.176 176.437 287.203 171.766 280.653C170.714 278.983 169.029 277.751 168.238 275.919C164.3 268.784 158.729 262.565 155.462 255.07C153.177 251.081 148.766 248.721 146.627 244.639C145.94 243.214 146.139 241.407 147.329 240.287C149.402 238.075 152.871 237.579 154.589 234.977C156.09 232.99 156.282 230.4 155.833 228.046C155.206 224.318 153.485 220.89 152.268 217.333C151.57 216.173 150.676 215.096 150.381 213.747C149.112 209.202 152.292 204.016 157.026 202.975C158.891 202.536 160.986 202.704 162.56 203.844C163.129 205.328 163.764 203.344 165.528 201.882C162.707 199.838 159.892 197.658 156.528 196.517C151.449 193.969 149.052 188.219 143.786 185.923C141.936 185.163 139.863 185.073 138.065 184.161C135.946 183.275 133.773 182.144 131.39 182.337ZM65.7455 235.965C66.6546 238.83 69.3424 240.595 71.7371 242.235C73.4261 243.444 75.5306 244.72 75.8349 246.925C75.9653 248.39 75.1645 249.736 74.296 250.87C75.081 252.896 74.956 255.504 73.1558 256.995C70.6388 259.329 66.8949 260.268 65.0079 263.263C64.7725 264.11 64.1326 264.966 63.1935 264.28C60.3123 263.921 57.639 265.346 54.8284 265.602C53.3943 265.111 54.8905 263.434 55.3584 262.635C56.2606 261.419 57.5093 260.209 57.3612 258.577C57.2575 254.788 54.1804 251.711 54.2674 247.884C54.2688 245.986 55.6329 244.445 57.1652 243.427C58.0224 242.702 58.5477 241.664 59.3337 240.859C61.0902 238.823 63.1969 236.996 65.7455 235.965ZM77.9269 236.623C79.3542 236.677 77.8453 238.124 77.522 237.095C77.5824 236.886 77.7748 236.763 77.9269 236.623ZM84.6944 236.623C83.2189 236.512 85.4065 238.051 84.6944 236.623V236.623ZM141.88 236.623C143.379 237.6 143.458 239.559 143.622 241.14C143.735 243.157 143.671 245.269 142.842 247.148C141.658 248.313 141.099 245.802 140.867 244.971C140.577 243.598 140.584 242.171 140.083 240.839C139.693 239.668 139.468 238.095 140.632 237.261C141.003 236.975 141.438 236.78 141.88 236.623ZM70.1444 236.952C75.48 239.346 81.4843 238.949 87.2027 239.276C89.9207 239.424 92.6182 239.885 95.2276 240.63C103.289 241.845 111.476 242.104 119.619 241.796C121.542 243.882 122.452 246.724 122.585 249.486C122.668 251.134 121.922 253.096 120.106 253.528C118.788 253.98 117.429 253.284 116.126 253.738C109.395 254.926 102.598 253.511 95.9571 252.447C92.2989 251.827 88.6084 251.36 84.8911 251.301C83.0648 251.153 81.07 251.045 79.5236 249.994C78.1762 248.913 78.4852 247.003 79.2243 245.674C80.2206 244.564 79.7228 243.311 78.4681 242.675C76.0122 241.138 72.8059 240.667 70.9053 238.348C70.5726 237.929 70.3106 237.456 70.1444 236.952ZM131.39 238.597C132.435 238.638 133.133 240.227 131.59 240.022C130.915 240.161 128.84 240.237 129.282 239.349C129.897 238.906 130.679 238.815 131.39 238.597ZM125.638 240.9C127.043 243.419 127.634 246.274 128.192 249.061C128.438 249.799 128.457 252.078 127.245 250.905C126.225 249.618 125.548 248.122 125.125 246.555C124.62 245.002 123.979 243.164 124.879 241.633C125.073 241.338 125.336 241.09 125.638 240.9ZM129.698 243.203C130.425 244.141 128.376 246.006 128.259 244.475C128.53 243.873 129.167 243.556 129.698 243.203ZM132.067 247.809C132.667 247.623 134.239 248.531 132.875 248.646C132.381 248.801 131.557 248.344 132.067 247.809ZM133.759 251.757C135.141 251.673 134.019 253.647 133.335 252.583C133.347 252.26 133.567 252.001 133.759 251.757ZM127.668 252.086C128.937 252.526 127.841 253.64 127.134 252.613C127.048 252.309 127.41 252.113 127.668 252.086ZM59.6548 313.61C61.0404 313.405 59.3275 315.243 59.5574 313.865L59.6029 313.736L59.6548 313.61Z" fill="#00B500"/>
<path fill-rule="evenodd" clip-rule="evenodd" d="M34.9532 175.1V178.061H33.5997C33.715 178.169 33.8343 178.262 33.9381 178.39C22.7094 184.807 19.9238 188.925 7.88336 204.71C7.1855 207.536 7.67256 211.527 7.54499 214.909C10.2432 217.001 13.4017 218.648 17.6962 219.186C18.3443 220.49 19.8789 221.052 20.7415 222.147C26.5018 233.835 34.762 242.88 44.0893 251.1C43.2719 251.945 42.5285 252.873 41.7207 253.732H45.7812C45.9111 253.64 45.9883 253.493 46.1196 253.403C46.6692 253.639 47.2495 253.611 47.8114 253.732H55.9324C55.2489 252.014 54.4231 250.367 53.5637 248.797C56.8839 244.336 59.576 239.302 64.7301 236.624V233.991H67.7754C67.6433 233.033 68.1619 232.055 68.4522 231.359C67.0207 227.861 62.6394 227.932 60.3312 225.437C58.2454 223.183 58.2979 219.361 54.9173 218.199C56.0845 216.916 57.9016 216.281 58.301 214.251C58.0492 213.045 57.7686 211.943 56.6091 211.619C58.1961 210.589 59.2117 209.232 60.6696 208C62.0047 206.873 63.5608 206.095 65.0685 205.039C67.9128 203.046 70.226 200.495 73.8662 199.446C75.4713 198.983 76.8767 198.675 78.265 198.13V195.169C76.9994 190.355 79.3617 196.907 78.265 184.97V182.667C75.1813 182.504 71.9155 182.488 68.7906 182.667C60.071 183.167 52.7393 185.085 46.1196 182.338C43.0676 179.528 39.4583 176.797 34.9532 175.1ZM12.959 216.883C13.0986 216.852 13.2587 216.893 13.6357 217.212C12.9747 218.087 12.5404 216.977 12.959 216.883Z" fill="#006F00"/>
<path fill-rule="evenodd" clip-rule="evenodd" d="M61.3479 229.713C62.5955 230.135 64.0512 230.608 65.07 231.687C63.0184 236.463 57.2503 237.712 54.9188 242.216C51.6423 243.503 49.2704 245.739 48.1513 249.125C47.8063 251.952 51.9423 248.824 51.535 251.099C52.3756 252.523 49.0444 251.619 48.1513 251.099V253.731C49.9469 254.058 51.7107 254.173 53.227 254.06C54.2698 257.419 54.7621 259.177 53.5653 262.614C52.2426 263.744 50.3985 264.024 49.5048 265.575C50.3224 267.923 51.1568 270.366 54.2421 270.51C56.3885 269.89 55.4533 268.031 57.2874 267.22C60.0323 266.005 62.4779 268.218 64.7316 268.207C66.0807 267.661 65.7223 266.301 65.4084 264.917C67.844 264.652 67.4327 262.585 69.4688 261.627C70.8755 260.965 72.7155 261.555 74.2061 260.969C77.1919 259.796 77.7661 257.371 78.2665 253.731C79.1067 253.788 79.8139 253.989 80.6352 254.06V251.099C79.9255 251.004 79.2668 250.831 78.6049 250.441C78.2195 247.343 80.574 245.337 79.9585 243.203C77.3338 242.193 74.6173 241.137 72.5142 239.584C71.404 238.763 70.4248 237.901 69.8072 236.623C70.7991 236.859 71.6118 237.256 72.5142 237.61V234.649C72.4118 234.639 72.2782 234.653 72.1758 234.649C70.5625 234.57 69.5002 235.215 68.1154 234.978C67.1439 233.85 68.0666 232.286 68.4538 231.358C68.1604 230.642 67.6039 230.175 67.1003 229.713L61.3479 229.713ZM50.5199 260.64C49.6461 260.868 48.7689 261.365 48.1513 261.956V266.233C49.2574 264.515 50.2537 262.674 50.5199 260.64Z" fill="#FFB6C1"/>
<path fill-rule="evenodd" clip-rule="evenodd" d="M66.0859 234.648V236.293C68.2647 240.733 72.87 242.883 76.5755 245.834C74.4043 247.58 74.3124 250.359 74.2069 253.401H80.9744V254.059C90.7632 254.932 99.4591 256.574 109.059 256.691C109.12 256.928 109.336 257.114 109.398 257.349H111.766C113.167 256.066 114.684 257.286 116.504 257.02C120.91 256.373 125.181 253.657 128.008 256.033C130.909 255.663 133.964 253.294 137.144 254.388C141.475 252.762 144.532 248.038 149.326 250.769C150.656 251.526 152.26 254.408 153.725 257.349H156.77C156.461 256.725 156.092 256.304 155.755 255.704C153.378 251.468 151.56 248.266 146.619 247.479C146.487 245.068 146.074 242.981 146.28 240.241C146.825 239.559 148.783 240.265 149.326 239.583C150.566 237.491 152.564 236.149 154.401 234.648H149.664C148.739 235.377 147.884 236.198 146.619 236.622C146.254 236.132 145.761 235.998 145.265 235.635C145.303 235.341 145.217 234.947 145.265 234.648H139.175C137.953 235.635 136.987 236.684 135.791 236.622C133.916 236.524 132.91 235.818 132.407 234.648H129.7C129.715 234.877 129.686 235.076 129.7 235.306C125.5 237.896 117.673 240.673 111.766 238.267C103.193 239.833 93.2161 236.622 84.3581 235.306C84.1973 235.135 84.1516 234.843 84.0197 234.648H79.6208C79.5395 235.09 79.787 235.521 79.6208 235.964C77.0376 236.299 74.5967 234.766 72.1767 234.648C70.5633 234.569 69.501 235.214 68.1162 234.977C68.0433 234.892 68.1687 234.737 68.1162 234.648H66.0859ZM77.5907 236.622C78.3382 236.498 78.9923 236.629 78.9441 237.28C78.5711 237.28 77.9637 237.28 77.5907 237.28C77.5907 237.04 77.5907 236.865 77.5907 236.622ZM84.6965 236.622C85.1497 236.692 84.9617 237.777 84.0197 236.951C84.3022 236.616 84.5454 236.599 84.6965 236.622Z" fill="#8B4513"/>
<path fill-rule="evenodd" clip-rule="evenodd" d="M135.452 81.6628C130.152 81.9536 126.093 85.5507 121.579 87.9139C120.245 88.6121 118.946 89.2215 117.857 89.8879C117.374 90.1824 116.949 90.5361 116.503 90.8749V93.836C116.596 93.8127 116.758 93.8471 116.842 93.836C116.559 99.4987 116.905 105.618 116.165 111.602C114.881 112.651 112.525 112.675 111.428 113.905C111.973 115.738 110.368 116.642 111.089 117.524C112.959 119.24 114.693 118.733 115.826 121.143C116.459 122.491 116.258 126.247 117.18 128.381C117.217 128.468 117.139 128.63 117.18 128.71C116.719 129.398 116.562 130.043 116.842 131.013C118.82 132.031 118.626 129.145 120.564 129.04C122.239 129.218 123.316 128.89 124.624 128.711C126.631 127.615 126.456 124.714 127.331 122.788C128.17 120.943 130.024 119.002 131.392 117.853C131.993 117.349 133.081 117.024 133.76 116.537C135.328 116.442 139.391 115.286 139.851 115.55H145.942C145.583 115.296 145.408 115.028 145.265 114.563C145.258 111.777 146.603 110.42 146.618 107.654C142.708 105.569 142.195 101.722 144.25 97.1261V93.178C144.101 93.252 144.072 93.4441 143.911 93.507C143.605 89.7395 144.371 84.4831 141.205 82.6499C139.088 81.8478 137.219 81.5659 135.452 81.6628ZM135.791 82.6498C136.038 82.6678 136.065 82.8323 136.129 82.9789C136.468 83.7632 134.867 83.8191 135.114 82.9789C135.177 82.7597 135.543 82.6317 135.791 82.6498Z" fill="#FFB6C1"/>
<path fill-rule="evenodd" clip-rule="evenodd" d="M117.857 89.8857C114.745 91.7855 112.55 94.8215 109.059 95.4788C106.463 102.547 104.703 112.181 103.984 122.457C103.363 131.3 98.3423 137.73 103.307 143.514C104.064 144.395 105.3 144.403 106.014 145.159C107.759 147.01 108.813 150.647 111.428 152.068C113.647 156.907 117.262 160.742 120.564 165.228C121.832 166.951 123.471 168.681 124.624 170.492C125.802 172.337 126.636 174.612 128.008 176.743C130.588 180.751 132.519 182.105 132.407 187.6C132.4 188.002 132.421 188.507 132.407 188.916H134.776C134.812 188.031 134.746 187.166 134.776 186.284C144.495 187.715 148.35 195.106 154.74 199.773C153.872 202.401 150.193 205.736 146.957 203.721C145.494 207.328 147.838 211.485 149.326 215.237H151.694C150.941 212.988 150.235 210.753 149.664 208.327C150.384 206.973 151.785 206.523 153.386 206.024C155.927 202.27 157.802 201.687 162.184 203.721C163.508 204.336 165.193 204.689 166.244 205.366C168.293 206.686 168.967 208.768 171.997 208.985C175.404 209.229 177.822 208.14 181.471 206.353C189.103 207.186 195.725 204.891 197.713 199.115C196.807 196.531 193.304 196.765 190.269 196.812C188.589 196.838 184.567 195.767 182.486 196.154C181.939 194.155 179.91 192.335 178.764 191.877C175.519 190.578 172.572 190.229 170.981 185.955C168.645 179.676 170.085 172.086 163.537 168.847C163.194 168.837 161.92 168.611 160.83 168.518C160.87 167.721 160.923 166.957 160.83 166.215C160.482 163.414 158.936 161.049 159.138 158.648C155.638 155.885 154.209 151.182 148.31 150.752C147.513 149.487 149.243 148.386 149.664 146.804C150.295 144.432 149.538 141.606 150.679 139.566C149.468 137.722 148.898 135.436 147.972 133.314C148.656 130.609 151.264 129.315 151.356 126.405C151.388 125.361 150.279 124.332 150.002 123.115C149.592 121.302 150.087 119.648 149.326 117.851C148.705 116.036 145.839 116.421 145.265 114.561C145.264 113.926 145.496 113.436 145.603 112.916H139.851C139.257 113.289 138.697 113.629 138.498 114.232C137.387 114.183 136.107 114.488 134.437 115.219C127.525 114.424 126.477 122.388 123.271 126.405C121.447 126.346 119.437 126.916 118.195 127.721C117.983 127.308 117.738 126.804 117.518 126.405C118.689 124.126 118.693 120.913 117.518 118.838C116.499 117.041 114.173 117.081 113.458 115.548C117.729 113.78 118.79 111.734 118.534 106.336C118.269 100.762 119.411 95.0341 117.857 92.5179C118.659 92.1159 117.857 90.7631 117.857 89.8857Z" fill="white"/>
<path fill-rule="evenodd" clip-rule="evenodd" d="M52.5507 6.64876C51.6969 6.63216 50.9356 6.6234 50.1822 6.97779C44.9146 12.7705 54.0008 17.2055 58.3031 22.77C60.4542 25.5522 62.1682 28.7769 62.0252 32.9692C61.8511 38.0848 59.5046 43.5732 58.3031 48.7614C57.3208 53.0065 56.8533 56.7195 56.9496 59.9475C54.7752 65.45 55.2317 73.6907 53.9043 80.0168C55.2566 82.2852 54.4211 85.0737 55.5961 87.5839C56.6562 89.8477 59.0915 91.7071 60.3333 93.835C61.5861 95.981 62.842 98.6853 63.7171 101.073C66.9251 109.826 69.8428 118.468 71.4997 129.367C67.3948 129.358 65.5577 133.966 62.3636 135.948C51.3607 138.428 48.7235 148.987 42.738 156.346C42.738 157.192 42.738 157.803 42.738 158.649C39.5749 160.92 35.902 162.985 32.5867 164.9C28.2751 167.391 22.8702 168.609 19.3901 172.138C20.1766 177.012 18.8984 180.269 22.0972 182.666C23.0297 183.364 24.3105 183.416 25.4809 183.982C7.02899 206.402 12.9333 201.995 27.8495 185.627C29.309 184.48 31.2667 183.73 32.9251 182.666C34.6861 181.537 36.1428 180.034 38.3391 180.034C41.6528 182.934 44.5503 186.307 49.5054 186.943C55.1382 187.667 61.4365 185.876 67.4392 185.298C68.5568 185.191 69.0566 185.661 70.1462 185.627C72.4124 185.558 75.9607 184.625 79.2823 184.969C80.7386 185.12 82.5745 185.364 83.6811 185.627C86.7182 186.348 89.0236 188.967 92.4789 188.917C94.0466 189.64 92.1187 187.77 95.1858 189.246C95.7034 192.365 99.809 194.215 102.63 195.826C105.7 197.579 109.622 199.227 113.458 201.09C118.858 203.714 121.947 205.596 126.316 209.645C128.326 211.505 131.86 216.88 133.422 210.961C133.601 210.278 133.315 208.812 133.422 207.671C134.066 200.796 134.532 193.482 134.776 186.285C137.205 186.643 139.377 187.292 141.205 188.259V184.969C139.194 184.282 137.041 183.861 134.437 183.324C134.207 179.511 132.078 178.136 130.715 175.757C128.32 171.572 126.41 167.497 123.609 163.584C121.609 160.79 119.176 157.744 117.18 155.359C116.431 154.464 115.494 153.925 114.811 153.056C114.438 152.581 114.421 151.522 114.135 151.082C113.773 150.521 113.122 150.519 112.781 150.095C110.695 147.482 107.565 144.698 106.014 142.199C103.629 138.354 104.634 137.232 105.337 132.986C107.069 122.526 107.087 111.032 109.059 101.402C109.673 98.4007 114.739 94.1055 116.842 93.835C117.147 93.6253 116.071 93.9488 117.857 92.519C125.167 90.6949 131.556 81.5003 140.528 85.9389C142.346 88.5292 140.229 91.8942 140.528 95.151C139.884 104.118 144.226 97.1124 144.25 97.125C147.23 95.5805 148.746 93.2626 150.341 90.2159C154.097 83.036 148.257 83.28 144.25 79.6878C141.662 77.3695 140.284 73.1456 137.144 70.8047C135.599 69.6501 133.162 69.4179 131.73 68.1726C130.648 67.2326 130.423 65.5147 129.362 64.5536C128.513 63.7844 127.145 63.3639 126.316 62.5795C124.089 60.4714 122.534 57.9142 120.225 55.9995C117.707 53.9124 114.927 52.5936 113.458 50.0774C113.929 46.2448 112.993 46.0846 111.428 43.4973C109.802 40.8103 108.251 38.6526 106.691 36.5882C105.161 34.5646 104.549 32.8621 103.307 31.6531C100.804 29.2139 98.3186 27.6236 94.5091 25.4021C91.9989 23.9361 89.1626 22.1022 86.3881 20.467C83.7505 18.9134 80.9437 17.5641 78.2671 15.8609C75.4771 14.0837 72.7507 11.3907 70.4845 10.2678C67.4708 8.77468 63.4508 9.17446 60.6718 8.6228C58.1118 8.11501 55.1122 6.69878 52.5507 6.64876ZM135.791 82.6488C136.039 82.6668 136.065 82.8312 136.129 82.9779C136.468 83.7622 134.867 83.8181 135.114 82.9779C135.178 82.7587 135.543 82.6307 135.791 82.6488Z" fill="#9F9D99"/>
<path fill-rule="evenodd" clip-rule="evenodd" d="M129.7 234.977C129.707 235.092 129.693 235.191 129.7 235.306C127.978 236.368 125.507 237.237 122.933 237.938L125.978 255.046C126.694 255.183 127.415 255.535 128.008 256.033C130.909 255.663 133.964 253.294 137.144 254.388C140.609 253.087 143.243 249.974 146.619 250.111L144.25 234.977H138.836C137.752 235.868 136.869 236.678 135.791 236.622C134.15 236.537 133.285 235.904 132.745 234.977L129.7 234.977Z" fill="#FFFF00"/>
<path fill-rule="evenodd" clip-rule="evenodd" d="M103.645 474.494V475.481C103.645 475.481 99.9152 472.976 95.0233 474.217C90.0425 475.481 81.9892 475.481 81.9892 475.481C80.6342 479.259 77.4735 482.095 75.8984 485.68C77.1403 489.55 78.5524 492.825 84.3577 492.26C87.7057 493.523 89.5893 495.671 92.4787 497.524C93.531 498.198 94.7325 498.421 95.8625 499.169C96.9039 499.858 97.9411 501.252 98.9078 501.801C102.17 503.657 106.631 502.535 110.074 505.091C114.493 504.429 121.381 505.926 125.639 505.42C130.251 506.638 134.584 509.826 139.851 510.355C140.983 510.468 142.117 509.665 143.235 509.697C146.252 509.785 148.575 511.988 151.694 512C153.533 508.979 150.576 506.891 148.987 505.091C146.144 504.083 143.794 502.207 141.204 500.814C138.673 499.451 135.431 497.593 133.084 496.866C131.549 496.39 129.798 496.885 128.346 496.208C126.072 495.148 124.866 492.396 122.932 490.944C122.169 490.371 120.956 490.448 120.225 489.957C116.706 487.592 113.866 483.238 109.736 482.061C108.562 479.021 105.657 477.212 103.645 474.494Z" fill="#8B4513"/>
<path fill-rule="evenodd" clip-rule="evenodd" d="M111.428 452.778C110.566 454.806 109.229 457.344 108.044 459.687C107.094 461.569 104.29 468.949 105.676 471.86C105.466 471.916 105.211 471.741 104.999 471.86C105.753 477.414 113.318 474.839 117.18 475.15C121.124 475.467 126.11 477.879 131.054 478.769C132.661 479.058 134.321 478.74 135.791 479.098C137.017 479.397 137.931 480.374 139.175 480.743C142.164 481.632 145.852 481.591 148.311 481.73C156.458 482.193 164.384 482.011 173.012 483.046C174.039 481.799 174.692 482.264 175.719 481.401C176.701 481.294 176.213 483.036 177.411 482.717C177.24 481.584 178.033 481.329 179.103 481.401C180.458 481.74 183.951 481.463 184.855 480.085C185.447 477.632 183.318 477.413 182.487 476.795C182.468 476.781 182.711 476.092 182.148 475.808C178.368 473.895 171.962 476.096 170.643 472.189C168.348 472.314 166.429 470.922 165.229 470.544C164.233 470.231 163.421 470.498 162.522 470.215C159.321 469.21 156.277 467.372 153.386 466.925C152.079 466.723 150.268 466.468 148.649 466.596C147.484 466.688 146.581 467.149 145.942 467.912C144.603 465.778 142.066 463.74 141.205 462.648C138.578 459.316 135.577 456.076 133.084 452.778H129.362C123.969 455.025 129.422 449.705 114.812 452.778H111.428Z" fill="#8B4513"/>
<path fill-rule="evenodd" clip-rule="evenodd" d="M132.188 255.931C137.228 262.325 135.263 272.891 136.422 280.958C137.148 289.093 137.699 300.314 134.613 306.346C132.204 299.574 135.555 287.199 134.192 278.275C134.798 270.901 131.279 262.619 132.188 255.931ZM154.945 304.17C149.082 302.862 151.348 292.54 148.778 287.656C148.713 279.799 144.179 272.84 141.944 265.597C148.227 268.275 149.892 281.617 152.334 288.938C152.462 294.151 155.52 299.048 154.945 304.17ZM134.428 115.202C130.008 118.437 126.848 123.503 124.728 128.622C121.031 127.754 113.967 134.371 118.361 127.594C126.858 128.044 125.124 115.85 133.199 115.153L134.428 115.202ZM142.262 127.171C135.333 131.684 136.78 120.653 142.262 127.171V127.171ZM129.579 131.523C131.992 139.151 113.596 134.191 123.863 132.91C126.562 134.154 127.485 132.475 129.579 131.523ZM132.188 94.8904C128.366 90.8403 125.569 96.4434 123.911 97.1267C121.156 92.2042 133.164 86.885 132.188 94.8904ZM131.444 100.331C122.721 103.309 129.569 94.9811 131.444 100.331V100.331ZM129.579 106.497C128.344 99.1852 135.238 106.278 129.579 106.497V106.497ZM96.3788 127.534C98.5445 134.3 96.433 143.389 104.513 147.307C99.595 151.207 92.2902 141.117 94.868 134.903C95.3675 133.056 94.1641 127.91 96.3788 127.534ZM107.568 95.6158C101.624 97.9711 97.6162 105.823 90.4539 106.319C84.9606 106.624 85.0843 97.3902 90.2363 102.844C96.8376 105.299 101.483 89.6884 107.568 95.6158ZM182.549 198.261C175.232 193.548 167.566 188.757 167.192 178.896C166.956 175.278 158.453 165.08 166.444 171.12C171.4 176.934 167.505 188.154 176.449 190.878C179.729 191.592 183.483 194.648 182.549 198.261ZM75.8605 485.522C83.0363 477.997 84.1727 467.835 79.6526 458.675C76.5027 448.546 77.0316 436.957 70.0524 428.287C66.3267 420.991 62.8302 412.278 66.1378 404.071C68.6177 396.17 71.6886 388.526 71.7969 380.076C70.5151 372.592 71.5809 364.74 68.2466 357.643C64.384 344.551 61.2835 330.939 61.6853 317.23C54.7445 313.366 46.2297 314.257 39.047 315.417C33.8 315.561 31.3268 313.161 35.2001 308.888C27.734 306.579 19.065 308.923 12.3654 304.587C7.41862 298.453 21.9454 294.814 22.2273 287.493C27.5143 278.247 28.5689 266.989 36.6805 259.367C41.9899 254.42 46.4776 250.041 38.1812 245.679C30.7072 238.686 24.9064 230.177 19.9127 221.47C14.1796 217.718 4.2241 216.606 7.63399 207.096C9.35972 198.151 23.7786 189.32 23.7334 183.442C15.615 178.745 20.1885 167.309 29.2193 166.583C40.3021 163.072 44.369 154.849 49.6341 145.674C54.4521 137.438 66.1732 134.693 71.225 128.335C68.796 115.946 65.6746 103.242 59.1189 92.2626C52.4831 85.8425 54.3462 76.5543 55.1479 68.4296C56.7511 60.592 57.0215 52.5894 59.3933 44.8672C61.7878 37.7308 64.1557 28.9919 58.3281 22.7155C54.0279 19.1722 42.0318 7.81922 53.8506 6.77686C61.2369 9.66066 70.4865 7.78671 76.0746 14.3822C85.3906 21.276 97.6112 24.721 105.036 33.8352C110.943 39.814 111.845 48.4629 117.406 53.8796C123.599 58.6881 128.136 65.1367 134.383 69.5382C140.843 74.1359 145.444 81.3832 151.624 86.0109C151.582 94.0992 136.057 100.342 146.737 107.588C145.223 111.903 144.329 115.902 149.348 117.744C150.445 123.294 152.432 128.661 147.856 133.34C153.364 138.404 147.734 147.079 149.284 150.88C158.605 153.801 161.446 163.877 161.141 172.474C162.487 178.367 156.526 172.716 158.899 169.115C158.097 161.903 153.918 154.864 147.124 152.185C144.269 148.388 150.407 140.463 146.513 135.337C143.145 132.183 150.718 126.757 147.217 121.391C148.368 115.789 131.904 115.878 142.519 111.305C143.902 106.625 137.857 101.927 140.819 96.5137C142.041 89.9392 140.656 81.2327 131.297 85.46C124.517 89.552 115.44 90.972 118.561 100.238C119.031 106.175 117.994 113.892 114.335 116.471C121.523 116.392 117.26 132.537 116.083 122.528C115.06 118.877 106.578 115.625 113.653 112.598C118.813 109.855 116.689 97.466 115.977 94.0872C107.138 97.902 108.227 108.101 107.192 115.881C106.771 123.5 105.48 131.072 104.606 138.606C107.558 146.107 114.489 150.895 118.817 157.325C125.224 164.321 128.879 173.101 133.937 180.929C136.581 186.41 147.841 184.833 151.133 191.925C157.575 198.399 165.432 200.796 172.869 206.288C180.571 207.611 168.493 199.775 176.633 201.838C181.555 203.862 190.128 205.48 192.619 199.352C188.998 200.612 180.42 196.516 188.448 196.661C196.942 194.254 200.744 202.16 191.752 205.095C183.491 204.735 174.708 212.34 167.505 206.611C162.109 199.925 148.83 203.201 150.526 211.489C151.397 219.699 162.036 231.123 151.911 236.665C148.03 240.188 144.303 241.146 146.735 247.591C156.578 250.249 157.394 262.487 164.134 268.822C167.749 275.676 172.466 281.656 176.3 288.32C176.944 296.059 183.329 303.061 183.296 310.211C178.011 314.697 168.752 310.838 164.266 317.954C157.318 319.903 145.793 315.133 141.621 319.803C142.407 334.211 136.309 347.969 130.889 360.944C126.953 367.199 132.302 376.157 126.389 381.951C123.717 392.022 125.579 402.744 125.88 413.041C127.083 425.074 127.843 437.386 130.476 449.135C134.109 455.988 141.293 460.719 144.207 467.803C138.472 468.826 133.324 457.626 129.214 452.778C125.694 443.679 125.052 433.086 123.956 423.238C123.165 413.536 122.963 403.894 122.486 394.123C122.231 387.02 123.482 380.068 126.428 373.481C124.481 365.519 128.582 359.339 131.08 352.249C134.527 342.2 138.162 332.124 139.646 321.581C129.769 318.736 120.934 323.196 111.172 324.255C107.614 329.924 109.881 340.496 106.536 347.75C105.833 357.829 99.5744 367.14 100.733 377.228C104.669 385.739 95.4629 390.576 95.4733 398.248C92.6417 410.942 94.9454 424.095 95.6265 436.922C93.6018 445.827 98.6727 453.958 99.3739 462.646C100.634 470.527 105.275 477.678 111.292 482.481C119.217 487.626 125.089 496.125 134.848 497.507C140.699 501.31 149.432 503.181 152.174 509.905C150.388 514.669 142.59 507.491 138.071 509.886C128.921 505.189 118.495 505.562 108.842 504.315C99.6447 503.665 93.2509 497.29 85.634 492.923C80.5791 492.708 76.8374 490.811 75.8605 485.522ZM138.53 76.3926C132.17 73.8414 128.253 68.5251 123.315 64.0973C117.895 58.9755 111.036 54.0655 108.411 47.1076C108.205 40.6302 100.943 33.6673 95.2566 29.6038C87.4409 25.9046 80.6552 20.5324 73.1219 16.2638C67.6828 12.0808 57.7269 9.85848 52.1546 10.4108C54.157 18.5289 67.273 22.8653 64.8592 33.0144C63.9067 42.295 60.488 51.141 59.8186 60.4336C58.9534 68.6665 55.3386 77.3454 58.2557 85.478C63.6449 91.9958 66.5865 100.133 68.7679 108.105C71.8929 112.813 71.202 122.978 75.0308 124.73C79.9696 116.991 91.4374 133.075 81.2406 127.271C76.8867 123.75 71.6094 130.122 78.7016 131.085C83.0715 139.553 68.8901 125.622 67.2798 134.97C62.0851 141.076 52.1639 142.291 49.2956 151.124C47.8124 153.397 54.4588 150.934 50.2579 155.392C46.5706 160.424 40.5135 163.11 35.8006 166.634C29.4988 168.335 17.1756 174.859 25.3132 180.851C30.2057 185.269 38.6535 175.344 28.4607 176.537C22.8045 176.314 23.8555 171.671 29.2814 173.598C39.1544 173.471 44.0294 184.564 53.8262 183.756C65.9518 183.263 78.6793 180.759 90.4273 184.87C96.6371 193.608 81.5059 182.619 76.7348 184.799C69.0144 185.347 61.3931 185.787 53.7036 187.12C43.9934 189.526 38.5535 174.531 30.2745 184.084C24.1738 188.181 19.4602 194.225 14.9735 199.978C8.46447 205.901 7.76755 215.863 18.7851 216.396C26.1855 223.856 30.4085 233.758 38.6838 240.709C43.1866 242.593 47.7857 254.895 51.5705 250.585C42.6959 248.948 56.539 241.181 58.6396 238.1C63.3805 235.646 67.6673 230.069 59.8186 229.091C56.5552 224.591 54.0383 219.987 48.6277 219.298C49.6502 216.102 59.8253 213.318 51.252 213.272C48.1907 214.465 36.2865 215.781 41.167 210.593C47.988 212.277 55.4865 209.437 60.6597 205.223C63.9432 200.379 79.4882 197.953 70.9346 192.44C73.174 188.698 85.7884 199.349 75.7405 198.943C68.9436 201.209 60.2342 207.616 57.2065 212.044C61.0749 215.886 51.7155 217.784 57.5572 220.421C58.0857 228.023 70.4765 227.108 68.0253 234.894C73.661 233.886 83.2377 239.139 79.5281 229.332C76.0783 224.909 81.385 220.767 81.9949 227.129C81.2777 239.707 98.0186 236.687 106.734 238.585C114.382 238.52 122.787 240.276 129.577 235.257C129.822 230.788 127.25 222.211 129.402 220.628C132.01 225.289 130.099 240.946 139.068 235.019C148.583 233.703 138.286 217.612 143.609 218.321C146.986 224.072 144.721 231.851 146.738 236.707C158.129 232.894 149.933 220.37 148.143 212.423C145.78 207.465 145.726 203.074 151.73 203.448C158.365 198.013 144.941 192.336 141.092 188.336C130.701 181.638 135.756 197.973 133.665 203.78C135.059 211.089 130.465 217.283 125.417 208.773C117.089 200.887 104.807 198.788 96.247 191.303C94.8288 185.835 105.707 194.084 108.992 194.793C118 196.738 124.602 202.817 131.071 208.417C131.063 199.932 133.643 191.336 131.876 182.942C127.376 175.091 122.999 167.213 116.809 160.428C112.485 155.223 109.535 149.145 104.788 144.447C96.7196 137.728 105.199 127.092 104.164 118.642C106.2 109.452 104.599 96.6065 114.734 92.3103C121.208 88.2719 127.732 83.2044 135.385 81.612C144.333 78.9605 143.011 91.0079 144.761 92.9245C155.06 84.8792 139.67 83.9146 138.53 76.3926ZM136.293 82.9212C133.791 81.7097 135.989 84.921 136.293 82.9212V82.9212ZM46.0195 155.098C46.6843 153.076 48.2344 155.345 46.0195 155.098V155.098ZM13.5658 217.121C12.2826 215.612 12.6011 218.409 13.5658 217.121V217.121ZM65.7887 235.982C60.3646 239.25 51.4002 246.175 55.3126 252.606C59.4529 257.771 57.0131 261.962 52.7326 266.086C59.0618 263.782 64.844 265.718 68.2058 259.913C77.1979 259.286 71.9954 250.348 76.6066 245.775C72.8077 242.763 67.7836 240.656 65.7887 235.982ZM79.9654 243.236C78.655 247.259 76.915 253.061 84.0028 251.205C92.441 252.17 100.909 252.885 109.219 254.26C115.977 253.944 126.206 254.26 121.681 245.294C121.029 238.518 109.897 242.878 104.484 241.785C96.1866 241.483 87.8631 237.895 79.5939 239.246C75.9707 239.767 66.0124 233.969 72.8096 239.993C74.9789 241.479 77.5251 242.287 79.9654 243.236ZM77.7272 237.431C77.2428 235.094 80.5576 238.363 77.7272 237.431V237.431ZM84.0688 237.07C85.072 235.562 85.2854 238.334 84.0688 237.07V237.07ZM139.65 239.246C141.452 242.704 139.2 249.12 144.127 247.588C142.86 244.909 144.865 230.866 139.65 239.246ZM129.204 239.609C126.872 239.885 135.291 241.169 131.424 238.715L130.208 238.961L129.204 239.609ZM124.728 243.961C124.214 248.632 131.088 255.843 127.875 247.427C127.285 245.931 125.418 235.039 124.728 243.961ZM128.086 244.687C128.207 242.701 133.678 243.783 128.086 244.687V244.687ZM133.309 248.314C130.449 246.617 132.619 249.6 133.309 248.314V248.314ZM176.954 302.719C174.912 294.657 172.628 286.774 167.105 280.274C160.888 271.795 156.299 262.511 151.467 253.245C145.6 245.503 137.766 256.164 130.26 255.394C124.954 255.241 114.886 255.733 112.106 258.413C113.252 263.046 118.913 273.208 112.418 275.154C111.121 268.586 113.103 254.791 103.241 256.405C95.309 256.861 83.8471 252.048 77.9172 255.063C77.874 263.646 64.7353 260.196 64.6696 268.262C59.6709 264.927 56.5317 268.384 53.1641 270.291C43.9791 265.856 58.9553 261.177 53.1055 254.117C43.2368 250.949 39.1707 261.053 33.8632 266.987C30.9539 274.505 27.3322 281.578 24.7 289.188C21.3709 295.379 8.90375 304.389 23.1792 304.391C29.4356 304.693 38.161 307.242 35.9386 298.273C37.5797 285.763 41.0903 273.117 47.9323 262.324C53.9269 259.519 42.5813 272.451 43.3432 277.353C40.6463 286.668 37.9975 296.226 38.5573 305.984C33.2607 317.9 52.968 308.296 59.4226 312.371C66.8165 313.669 74.5487 316.708 82.5915 316.941C90.1845 318.248 99.2755 315.94 105.848 319.808C114.335 325.1 123.898 318.042 132.886 318.223C140.05 319.855 145.114 312.385 153.513 315.053C162.593 317.895 168.484 310.698 176.888 309.388C181.822 308.282 178.383 305.283 176.954 302.719ZM133.309 252.666C133.513 250.04 135.775 253.277 133.309 252.666V252.666ZM128.46 252.666C126.121 250.859 126.622 254.125 128.46 252.666V252.666ZM59.8217 313.6C59.4254 315.761 61.5471 313.792 59.8217 313.6V313.6ZM63.9251 317.226C64.2472 328.456 66.0812 339.623 69.8936 350.232C70.3389 360.888 78.1208 370.177 76.6081 381.062C71.6271 385.153 73.7435 394.547 70.1793 400.55C67.6307 407.418 69.7172 413.477 70.0848 419.652C72.7607 425.549 76.7322 431.615 78.3863 438.522C81.2613 449.608 82.8261 461.135 85.7015 472.098C91.1291 474.449 90.0132 479.145 84.4418 475.727C80.7763 480.589 75.8774 489.714 85.6926 489.086C93.1473 491.682 97.7306 499.541 106.074 500.803C115.883 502.905 126.412 501.412 135.654 505.921C139.574 505.902 148.289 508.657 140.771 504.018C132.052 499.339 122.453 498.663 116.031 490.058C107.635 484.354 101.021 476.658 98.3287 466.781C93.9287 453.739 92.0697 440.087 91.904 426.398C93.0761 418.877 90.4209 410.882 92.7628 403.263C93.5203 396.438 94.17 389.854 98.408 384.612C97.2131 374.746 100.077 365.909 102.349 356.396C104.983 345.557 107.393 334.572 107.571 323.389C101.14 318.632 93.8529 319.951 85.8783 320.095C78.5364 319.834 71.2239 318.535 64.2997 316.135L64.0641 316.637L63.9251 317.226ZM138.158 461.583C136.874 460.074 137.195 462.871 138.158 461.583V461.583ZM99.3631 393.031C101.626 401.448 105.735 410.043 110.343 417.782C112.261 426.584 113.539 435.746 114.348 444.758C115.278 453.083 114.21 454.814 109.511 460.942C109.836 464.416 105.572 469.8 106.01 463.589C109.665 456.467 113.831 448.78 111.585 440.712C108.101 431.981 108.567 422.017 104.726 413.815C101.883 407.801 96.5035 399.393 99.3631 393.031ZM184.787 480.081C177.857 482.641 174.319 482.441 166.508 482.441C157.449 481.796 148.194 482.734 139.276 480.805C129.456 477.706 118.827 474.323 108.165 475.13C101.082 471.167 109.05 471.465 112.879 472.592C123.32 471.154 132.969 476.095 143.021 477.928C151.804 480.795 161.039 477.792 169.863 480.083C175.326 479.313 174.863 478.328 169.49 477.182C161.921 475.302 155.397 471.028 147.408 469.545C142.167 465.684 156.183 466.108 158.926 468.935C167.254 471.368 174.558 474.399 182.564 476.376C182.512 477.662 186.116 477.885 184.787 480.081Z" fill="black" stroke="black" stroke-width="0.563353"/>
<path fill-rule="evenodd" clip-rule="evenodd" d="M137.481 461.334C137.621 461.303 137.78 461.343 138.158 461.663C137.498 462.538 137.063 461.428 137.481 461.334Z" fill="#8B4513"/>
</svg>
